<?xml version="1.0" encoding="UTF-8"?>
<!DOCTYPE svg PUBLIC "-//W3C//DTD SVG 1.1//EN" "http://www.w3.org/Graphics/SVG/1.1/DTD/svg11.dtd">
<!-- Creator: CorelDRAW 2021 (64-Bit) -->
<svg xmlns="http://www.w3.org/2000/svg" xml:space="preserve" width="2.75591in" height="2.75591in" version="1.1" style="shape-rendering:geometricPrecision; text-rendering:geometricPrecision; image-rendering:optimizeQuality; fill-rule:evenodd; clip-rule:evenodd"
viewBox="0 0 2755.91 2755.91"
 xmlns:xlink="http://www.w3.org/1999/xlink"
 xmlns:xodm="http://www.corel.com/coreldraw/odm/2003">
 <defs>
  <style type="text/css">
   <![CDATA[
    .str2 {stroke:#373435;stroke-width:6.94;stroke-miterlimit:2.61313}
    .str0 {stroke:#373435;stroke-width:6.94;stroke-miterlimit:2.61313}
    .str4 {stroke:#F8ECDA;stroke-width:6.94;stroke-miterlimit:2.61313}
    .str1 {stroke:#373435;stroke-width:13.89;stroke-linecap:round;stroke-linejoin:round;stroke-miterlimit:2.61313}
    .str3 {stroke:#373435;stroke-width:6.94;stroke-linecap:round;stroke-linejoin:round;stroke-miterlimit:2.61313}
    .fil0 {fill:none}
    .fil4 {fill:none;fill-rule:nonzero}
    .fil11 {fill:#FEFEFE}
    .fil5 {fill:#373435}
    .fil3 {fill:#902730}
    .fil1 {fill:#C73E4E}
    .fil10 {fill:#D26270}
    .fil9 {fill:#D9CDBE}
    .fil8 {fill:#F8ECDA}
    .fil2 {fill:#373435;fill-rule:nonzero}
    .fil7 {fill:#373435;fill-rule:nonzero}
    .fil6 {fill:#C73E4E;fill-rule:nonzero}
   ]]>
  </style>
     <clipPath id="id0">
      <path d="M2315.78 1831.46c-383.37,802.02 -2354.21,493.69 -1803.91,-713.73 459.99,-1009.3 1840.42,-565.26 1876.71,363.36 4.85,124.12 -20.34,240.63 -72.8,350.37z"/>
     </clipPath>
     <clipPath id="id1" style="clip-rule:nonzero">
      <path d="M2315.78 1831.46c52.46,-109.75 77.65,-226.25 72.8,-350.37 -36.29,-928.62 -1394.36,-1367.07 -1854.35,-357.77 -550.3,1207.42 1398.18,1510.16 1781.56,708.14zm17.43 8.07c-123.86,259.11 -419.96,466.67 -933.44,466.67 -513.48,0 -831.59,-200.72 -955.45,-459.84 -110.37,-230.89 -98.64,-529.94 5.22,-757.83 153.09,-335.91 530.12,-592.69 953.43,-592.69 423.3,0 755.98,276.49 909.07,612.4 54.61,119.82 86.38,247.22 91.27,372.32 4.89,125.2 -17.13,248.14 -70.1,358.96z"/>
     </clipPath>
     <mask id="id2">
  <radialGradient id="id3" gradientUnits="userSpaceOnUse" cx="1596.74" cy="1039.39" r="395.79" fx="1596.74" fy="1039.39">
   <stop offset="0" style="stop-opacity:0; stop-color:white"/>
   <stop offset="0.278431" style="stop-opacity:0.501961; stop-color:white"/>
   <stop offset="1" style="stop-opacity:1; stop-color:white"/>
  </radialGradient>
      <rect style="fill:url(#id3)" x="1271.7" y="1036.69" width="621.52" height="613.58"/>
     </mask>
     <mask id="id4">
  <radialGradient id="id5" gradientUnits="userSpaceOnUse" cx="2425.98" cy="1227" r="395.79" fx="2425.98" fy="1227">
   <stop offset="0" style="stop-opacity:0; stop-color:white"/>
   <stop offset="0.431373" style="stop-opacity:0.501961; stop-color:white"/>
   <stop offset="1" style="stop-opacity:1; stop-color:white"/>
  </radialGradient>
      <rect style="fill:url(#id5)" x="2100.94" y="1224.3" width="380.38" height="375.52"/>
     </mask>
 </defs>
 <g id="Layer_x0020_1">
  <metadata id="CorelCorpID_0Corel-Layer"/>
  <rect class="fil0" x="-2.05" y="2.05" width="2755.91" height="2755.91"/>
  <g id="_1898837580496">
   <g>
    <g>
     <path class="fil1" d="M1509.05 2529.69c-11.63,-71.37 -26.08,-144.37 42.84,-279.74 52.27,27.02 168.18,-30.04 184.54,-26.59 -19.91,97.69 -89.2,265.75 -179.36,335.44 -32.1,24.81 -41.48,11.04 -48.02,-29.11z"/>
     <path class="fil2 str0" d="M1571.62 2207.61c-68.92,135.37 -65.94,238.29 -54.3,309.67 6.55,40.16 19.77,58.24 48.02,29.11 73.62,-75.89 131.55,-186.77 151.46,-284.46 -29.8,-6.3 -51.64,-12.44 -73.51,-20.81 -22.09,-8.46 -43.15,-18.76 -71.67,-33.5zm-34.61 -16.31c58.02,-49.07 117.5,16.39 207.89,33.84l19.83 3.83 -3.24 19.98c-27.21,168.09 -128.99,286.02 -188.45,338.62 -12.24,10.82 -23.01,19.12 -31.11,24.62 -14.23,9.66 -27.2,11.89 -34.88,7.65 -85.59,-47.56 -13.5,-351.11 29.96,-428.54z"/>
    </g>
    <path class="fil3" d="M1541.15 2560.02c-20.93,-112.01 44.56,-263.63 44.56,-263.63 -15.41,1.45 -33.24,3.52 -49.11,4.61 -35.14,97.16 -28.28,158.96 -18.58,215.74 4.28,25.06 11.28,41.52 23.13,43.28z"/>
    <line class="fil0 str1" x1="1705.26" y1="2369.22" x2="1659.6" y2= "2295.09" />
    <line class="fil0 str1" x1="1682.73" y1="2427.54" x2="1641.46" y2= "2360.55" />
    <line class="fil0 str1" x1="1653.81" y1="2471.48" x2="1620.57" y2= "2417.53" />
    <line class="fil0 str1" x1="1624.4" y1="2510.87" x2="1599.94" y2= "2471.16" />
    <line class="fil0 str1" x1="1583.35" y1="2549.52" x2="1566.84" y2= "2522.72" />
   </g>
   <g>
    <path class="fil2" d="M2195.63 1449.42c153.75,108.88 257.34,235.33 313.63,351.57 8.04,16.6 73.4,191.79 29.04,166.4 -56.73,-32.46 -178.05,-163.64 -212.47,-195.74 -34.09,-31.79 -223.8,-212.89 -177.48,-269.56 18.8,-23.04 30.06,-29.69 47.28,-52.67zm341.32 352.04c-72.22,-149.11 -215.62,-359.17 -350.72,-453.35 12.88,91.26 13.6,73.28 -46.56,146.89 -10.56,12.91 -5.09,183.21 3.97,189.92 111.56,82.72 386.71,338.98 420.5,348.98 80.09,23.77 -16.63,-210.63 -27.19,-232.45z"/>
    <path class="fil1 str2" d="M2509.26 1800.99c-56.29,-116.24 -159.88,-242.69 -313.63,-351.57 -17.22,22.98 -28.48,29.64 -47.28,52.67 -46.32,56.67 143.39,237.77 177.48,269.56 34.42,32.1 155.74,163.28 212.47,195.74 44.36,25.39 -21,-149.8 -29.04,-166.4z"/>
   </g>
   <g>
    <path class="fil1" d="M2315.78 1831.46c-383.37,802.02 -2354.21,493.69 -1803.91,-713.73 459.99,-1009.3 1840.42,-565.26 1876.71,363.36 4.85,124.12 -20.34,240.63 -72.8,350.37z"/>
    <g style="clip-path:url(#id0)">
     <g>
      <polygon id="_1" class="fil3" points="1176.74,2205.98 1187.66,2255.5 1160.42,2250.51 "/>
     </g>
    </g>
    <path class="fil0 str2" d="M2315.78 1831.46c-383.37,802.02 -2354.21,493.69 -1803.91,-713.73 459.99,-1009.3 1840.42,-565.26 1876.71,363.36 4.85,124.12 -20.34,240.63 -72.8,350.37z"/>
    <path class="fil2" d="M2315.78 1831.46c52.46,-109.75 77.65,-226.25 72.8,-350.37 -36.29,-928.62 -1394.36,-1367.07 -1854.35,-357.77 -550.3,1207.42 1398.18,1510.16 1781.56,708.14zm17.43 8.07c-123.86,259.11 -419.96,466.67 -933.44,466.67 -513.48,0 -831.59,-200.72 -955.45,-459.84 -110.37,-230.89 -98.64,-529.94 5.22,-757.83 153.09,-335.91 530.12,-592.69 953.43,-592.69 423.3,0 755.98,276.49 909.07,612.4 54.61,119.82 86.38,247.22 91.27,372.32 4.89,125.2 -17.13,248.14 -70.1,358.96z"/>
    <g style="clip-path:url(#id1)">
     <g>
      <polygon id="_1_0" class="fil3" points="1176.74,2205.98 1187.66,2255.5 1160.42,2250.51 "/>
     </g>
    </g>
    <path class="fil4" d="M2315.78 1831.46c52.46,-109.75 77.65,-226.25 72.8,-350.37 -36.29,-928.62 -1394.36,-1367.07 -1854.35,-357.77 -550.3,1207.42 1398.18,1510.16 1781.56,708.14zm17.43 8.07c-123.86,259.11 -419.96,466.67 -933.44,466.67 -513.48,0 -831.59,-200.72 -955.45,-459.84 -110.37,-230.89 -98.64,-529.94 5.22,-757.83 153.09,-335.91 530.12,-592.69 953.43,-592.69 423.3,0 755.98,276.49 909.07,612.4 54.61,119.82 86.38,247.22 91.27,372.32 4.89,125.2 -17.13,248.14 -70.1,358.96z"/>
   </g>
   <path class="fil5" d="M1196.24 1069.14c361.39,-131.96 716.9,-96.48 970.82,21.08l-313.02 -407.03c-81.21,-30.62 -167.92,-37 -261.85,-30.67l-395.95 416.63z"/>
   <path class="fil6" d="M1775.72 957.21l12.55 -274.83c31.74,7.19 43.7,11.82 69.03,24.46l55.19 68.17 -73.95 -11.02 -1.93 42.92 106.71 13.95 35.27 52.46 -144.25 -15.76 -2.48 55.27c71,4.37 127.26,9.18 191.32,27.26l58.65 83.23c-44.42,-15.24 -212.57,-63.81 -306.12,-66.11zm-83.63 -5l-60.67 -1.11 3.79 -81.89c-40.87,-3.66 -107.88,9.67 -146.23,21.32l-64.36 74.03c-27.05,2.67 -96.48,19.74 -133.93,36.74l288.98 -275.9 -31.12 -4.64 55.2 -50.05c27.59,-6.15 69.2,-7.87 100.82,-1.74l-12.48 283.24zm-54.05 -144.24l2.66 -57.51 -88.38 78.46c31.64,-18.94 64.13,-18.8 85.72,-20.94zm67.69 144.56l12.89 -282.01c21.15,1.99 40.88,3.85 56.72,8.77l-12.48 276.98 -57.13 -3.74z"/>
   <g>
    <path class="fil2" d="M1675.35 641.71c24.94,-285.86 -180.71,-589.49 -270.67,-481.15 -21.35,25.71 -29.11,85.43 -35.76,136.54 -4.8,36.91 -3.58,66.93 -12.2,70.47 -11.45,2.58 -75.53,-139.88 -147.8,-157.89 -34.62,-12.19 -72.61,-3.05 -63.65,41.3 5.58,27.61 33.28,71.53 94.77,130.93 -53.17,-25.93 -124.98,-59.64 -155.33,-43.24 -20.93,11.32 -24.02,38.69 4.93,92.24l12.2 -6.6c-19.34,-35.76 -10.19,-57.86 -3.96,-61.23 19.28,-10.42 88.86,23.59 137.3,47.26 33.46,16.36 58.87,28.78 68.69,18.12 8.1,-8.91 0.63,-24.5 -28.78,-51.59 -68.17,-62.82 -97.61,-106.31 -102.68,-131.33 -4.04,-20 14.67,-14.15 27.35,-9.69 37.6,13.25 92.41,57.85 133.32,134.28 12.19,22.77 24.32,28.47 36.7,21.84 15.84,-8.48 20.81,-46.78 26.59,-91.22 6.17,-47.5 13.38,-103 29.59,-122.52 4.83,-5.81 12.06,-6.05 22.97,3.01 86.43,71.79 76.1,307.15 54.61,413.1l171.81 47.38z"/>
    <circle class="fil1" transform="matrix(-2.54851 -0.440407 -0.440407 2.54851 1115.95 458.608)" r="14.64"/>
    <path class="fil2" d="M1123 417.9c-11.25,-1.95 -22.22,0.85 -30.86,6.94 -8.64,6.09 -14.96,15.49 -16.9,26.73 -1.95,11.25 0.85,22.23 6.94,30.86 6.11,8.64 15.5,14.96 26.74,16.9 11.24,1.95 22.22,-0.85 30.85,-6.94 8.63,-6.11 14.96,-15.5 16.9,-26.73 1.94,-11.25 -0.86,-22.22 -6.94,-30.85 -6.09,-8.63 -15.49,-14.96 -26.72,-16.9zm12.78 68.82c-7.2,5.07 -16.34,7.41 -25.69,5.79 -9.35,-1.61 -17.18,-6.88 -22.25,-14.06 -5.07,-7.2 -7.41,-16.33 -5.8,-25.68 9.52,-55.09 103.26,-1 53.73,33.96z"/>
    <path class="fil2" d="M1087.59 512.73c-12.47,-10.16 -55.07,-44.07 -26.3,-82.88 -12.58,-8.87 -37.39,54.29 26.3,82.88z"/>
    <path class="fil2" d="M1036.04 490.06c-4.61,-3.76 -20.35,-16.28 -9.72,-30.62 -4.65,-3.28 -13.81,20.06 9.72,30.62z"/>
    <path class="fil2" d="M1158.87 492.31c5.51,-15.11 24.74,-66.05 -19.84,-84.66 6.26,-14.06 59.91,27.49 19.84,84.66z"/>
    <path class="fil5" d="M1134.33 458.17c-3.25,-1.27 -7.72,-7.33 -6.41,-10.66 1.31,-3.33 5,-5 8.24,-3.73 7.35,2.88 2.56,16.11 -1.83,14.39z"/>
   </g>
   <path class="fil7" d="M2364.77 1291.13c-139.71,-167.56 -395.86,-277.04 -605.91,-293.83 -176.86,-14.14 -417.61,4.34 -589.83,116.48 -130.13,84.75 -218.57,219.88 -204.09,422.31 34.5,482.07 569.29,581.31 879.02,558.93 118.38,-8.55 331.51,-65.29 436.4,-177.48l-118.75 131.91c-102.29,42.69 -214.79,65.6 -315.49,73.26 -319.89,24.35 -874.39,-78.81 -910.62,-586.77 -15.37,-215.46 78.7,-358.73 216.86,-447.99 177.53,-114.69 422.9,-136.4 603.37,-121.3 206.65,17.3 446.63,91.87 592.58,246.64 1.03,7.57 11.69,61.53 16.45,77.84z"/>
   <path class="fil8" d="M2355.37 1282.38c-116.76,-131.81 -310.47,-243.65 -487.46,-274.53 -54.04,-7.29 -110.09,-11.61 -167.34,-13.04 -68.98,-1.72 -139.72,0.74 -210.87,7.24 -112.87,16.29 -226.8,50.61 -320.66,111.73 -130.13,84.75 -218.57,219.88 -204.09,422.31 34.5,482.07 569.29,581.31 879.02,558.93 110.89,-8.01 260.35,-50.12 369.65,-111.68 50.16,-58.08 70.3,-85.19 102.17,-151.89 10.1,-21.13 19.19,-42.52 27.25,-64.16 4.75,-12.76 9.15,-25.61 13.18,-38.55 15.58,-50.01 25.75,-101.37 30.26,-154.17 2.27,-26.49 3.11,-53.33 2.5,-80.55 -0.09,-4.31 -0.23,-8.63 -0.4,-12.95 -3.25,-83.11 -10.06,-124.06 -33.22,-198.71z"/>
   <g>
    <line class="fil0 str3" x1="2044.4" y1="1035.25" x2="2036.56" y2= "1065.23" />
    <line class="fil0 str3" x1="2066.87" y1="1043.44" x2="2058.61" y2= "1073.31" />
    <line class="fil0 str3" x1="2089.09" y1="1054.67" x2="2080.84" y2= "1084.54" />
    <line class="fil0 str3" x1="2112.25" y1="1066.03" x2="2100.69" y2= "1094.78" />
    <line class="fil0 str3" x1="2137.97" y1="1080.3" x2="2124.22" y2= "1108.06" />
    <line class="fil0 str3" x1="2159.75" y1="1095.43" x2="2144.18" y2= "1122.22" />
    <line class="fil0 str3" x1="2015.82" y1="1026.75" x2="2009.86" y2= "1057.16" />
   </g>
   <line class="fil0 str1" x1="631.08" y1="1948.04" x2="582.39" y2= "1881.57" />
   <line class="fil0 str1" x1="665.89" y1="1897.52" x2="625.44" y2= "1844.36" />
   <line class="fil0 str1" x1="705.74" y1="1852.3" x2="673.42" y2= "1812.68" />
   <path class="fil9" d="M1355.09 2027.5c-578.19,-462.31 -217.77,-859.76 -120.07,-950.76 -22.86,11.02 -44.94,23.33 -65.99,37.04 -130.13,84.75 -218.57,219.88 -204.09,422.31 18.97,265.09 189.22,414.42 390.15,491.41z"/>
   <path class="fil3" d="M497.9 1290.45c128.15,-434.59 556.96,-742.71 1006.5,-695.88 1.67,-9.27 4.54,-30.73 5.98,-41.41 -380.66,-56.42 -786.94,100.35 -998.51,564.57 -116.4,255.39 -106.24,556.54 -9.49,694.23 -84.56,-239.23 -35.63,-415.88 -4.49,-521.51z"/>
   <g>
    <g>
     <path class="fil1" d="M970.73 2184.06c33.83,15.45 58.81,26.25 85,35.1 25.93,8.76 51.82,15.17 87.13,21.71 -23.24,103.05 -87.33,239.76 -174.24,320 -33.35,30.79 -53.21,-7.86 -61.11,-50.17 -14.04,-75.21 -17.92,-183.71 63.23,-326.64z"/>
     <path class="fil2" d="M973.09 2184.06c-72.24,142.93 -68.78,251.43 -56.29,326.64 7.03,42.31 21.03,61.33 50.72,30.54 77.38,-80.24 138.1,-197.31 158.79,-300.37 -31.43,-6.55 -54.48,-12.95 -77.56,-21.71 -23.31,-8.85 -45.54,-19.65 -75.66,-35.1zm-36.54 -17.08c61.02,-51.92 123.93,16.91 219.28,35.03l20.92 3.97 -3.35 21.08c-28.17,177.29 -135.09,301.93 -197.62,357.57 -12.87,11.45 -24.2,20.23 -32.72,26.06 -14.98,10.23 -28.64,12.63 -36.75,8.17 -90.38,-49.87 -15.33,-370.12 30.25,-451.88z"/>
    </g>
    <path class="fil3" d="M939.15 2556.05c-14.55,-153.87 30.6,-261.69 59.72,-313.41 7.33,-13.01 13.63,-22.48 17.72,-28.23 3.12,-4.39 4.94,-6.61 4.94,-6.61 -9.24,-4.18 -18.85,-8.81 -29.34,-14.05 -6.21,-2.76 -12.26,-6.57 -19.11,-9.69 -2.14,4.25 -4.65,9.34 -6.66,13.53 -5.12,10.67 -9.81,21.14 -14.11,31.41 -50.62,120.95 -46.66,214.57 -35.51,281.69 4.26,25.61 11.06,42.68 22.35,45.35z"/>
    <line class="fil0 str1" x1="1117.89" y1="2316.39" x2="1059.61" y2= "2237" />
    <line class="fil0 str1" x1="1097.84" y1="2384.2" x2="1045.16" y2= "2312.46" />
    <line class="fil0 str1" x1="1069.26" y1="2436.41" x2="1026.84" y2= "2378.63" />
    <line class="fil0 str1" x1="1039.72" y1="2483.51" x2="1008.5" y2= "2440.98" />
    <line class="fil0 str1" x1="996.98" y1="2530.85" x2="975.91" y2= "2502.15" />
   </g>
   <g>
    <path class="fil2" d="M1045.04 1090.06c-3.73,-4.36 -3.22,-10.92 1.14,-14.65 4.36,-3.73 10.92,-3.22 14.65,1.14l17.29 20.26c3.73,4.36 3.22,10.92 -1.14,14.65 -4.36,3.73 -10.92,3.22 -14.65,-1.14l-17.29 -20.26z"/>
    <path class="fil2" d="M1003.19 1108.07c-3.77,-4.31 -3.33,-10.88 0.98,-14.65 4.31,-3.77 10.88,-3.33 14.65,0.98l27.54 31.37c3.77,4.31 3.33,10.88 -0.98,14.65 -4.31,3.77 -10.88,3.33 -14.65,-0.98l-27.54 -31.37z"/>
    <path class="fil2" d="M958.34 1120.87c-3.77,-4.31 -3.33,-10.88 0.98,-14.65 4.31,-3.77 10.88,-3.33 14.65,0.98l46.29 52.73c3.77,4.31 3.33,10.88 -0.98,14.65 -4.31,3.77 -10.88,3.33 -14.65,-0.98l-46.29 -52.73z"/>
    <path class="fil2" d="M900.59 1131c-4.24,-3.86 -4.55,-10.44 -0.69,-14.69 3.86,-4.24 10.44,-4.55 14.69,-0.69l81.71 74.3c4.24,3.86 4.55,10.44 0.69,14.69 -3.86,4.24 -10.44,4.55 -14.69,0.69l-81.71 -74.3z"/>
    <path class="fil2" d="M889.24 1192.02c-4.54,-3.5 -5.38,-10.03 -1.87,-14.57 3.5,-4.54 10.03,-5.38 14.57,-1.87l67.15 52.13c4.54,3.5 5.38,10.03 1.87,14.57 -3.5,4.54 -10.03,5.38 -14.57,1.87l-67.15 -52.13z"/>
    <path class="fil2" d="M892.21 1251.65c-4.76,-3.21 -6.02,-9.68 -2.81,-14.44 3.21,-4.76 9.68,-6.02 14.44,-2.81l44.34 29.91c4.76,3.21 6.02,9.68 2.81,14.44 -3.21,4.76 -9.68,6.02 -14.44,2.81l-44.34 -29.91z"/>
    <path class="fil2" d="M1090.09 1072.11c-3.44,-4.58 -2.5,-11.09 2.08,-14.53 4.58,-3.44 11.09,-2.5 14.53,2.08l9.2 12.25c3.44,4.58 2.5,11.09 -2.08,14.53 -4.58,3.44 -11.09,2.5 -14.53,-2.08l-9.2 -12.25z"/>
    <path class="fil2" d="M882.17 1308.58c-5.06,-2.69 -6.97,-8.98 -4.28,-14.04 2.69,-5.06 8.98,-6.97 14.04,-4.28l37.28 19.99c5.06,2.69 6.97,8.98 4.28,14.04 -2.69,5.06 -8.98,6.97 -14.04,4.28l-37.28 -19.99z"/>
    <path class="fil2" d="M879.33 1363.08c-5.57,-1.32 -9.01,-6.92 -7.69,-12.49 1.32,-5.57 6.92,-9.01 12.49,-7.69l30.13 7.22c5.57,1.32 9.01,6.92 7.69,12.49 -1.32,5.57 -6.92,9.01 -12.49,7.69l-30.13 -7.22z"/>
    <path class="fil2" d="M886.12 1410.37c-5.57,-1.32 -9.01,-6.92 -7.69,-12.49 1.32,-5.57 6.92,-9.01 12.49,-7.69l18.75 4.5c5.57,1.32 9.01,6.92 7.69,12.49 -1.32,5.57 -6.92,9.01 -12.49,7.69l-18.75 -4.5z"/>
    <ellipse class="fil5" cx="1135.07" cy="1054.45" rx="15.17" ry="14.82"/>
    <ellipse class="fil5" cx="1169.2" cy="1037.03" rx="13.6" ry="13.29"/>
    <ellipse class="fil5" cx="1202.74" cy="1023.93" rx="11.62" ry="11.35"/>
    <ellipse class="fil5" cx="899.31" cy="1451.23" rx="13.99" ry="14.82"/>
    <ellipse class="fil5" cx="899.26" cy="1499.52" rx="10.46" ry="11.08"/>
    <ellipse class="fil5" cx="902.03" cy="1544.64" rx="5.72" ry="6.06"/>
   </g>
   <circle class="fil10" cx="1079.2" cy="861.51" r="111.53"/>
   <circle class="fil10" cx="1229.84" cy="741.23" r="55.77"/>
   <line class="fil0 str1" x1="754.53" y1="1828.81" x2="722.2" y2= "1789.19" />
   <g>
    <path class="fil7" d="M1994.76 1843.19c86.17,-1.39 152.28,-53.08 167.75,-31.63 -36.81,33.35 -96.48,50.74 -166.5,53.96 -100.43,4.63 -227.15,-20.11 -311.66,-70.95 44.86,-29.68 199.3,50.41 310.41,48.62z"/>
    <path class="fil2" d="M1662.98 1682.23c-7.24,5.04 -211.88,-106.15 -299.51,33.9 8.72,-84.89 240.05,-135.81 299.51,-33.9z"/>
    <path class="fil2" d="M2097.73 1647.08c1.2,1.06 4.57,27.98 20.61,24.77 49.85,-9.99 159.83,-53.98 199.11,29.05 1.57,-62.17 -165.78,-121.61 -219.72,-53.82z"/>
    <path class="fil5 str2" d="M1592.38 1643.44c42.23,-47.32 70.33,-102.43 70.33,-220.91 0,-118.47 -70.68,-263.68 -157.85,-263.68 -87.18,0 -157.85,139.68 -157.85,263.68 0,124 28.82,185.81 79.86,229.49 30.79,-17.87 126.55,-20.87 165.51,-8.59z"/>
    <path class="fil5 str2" d="M2256.35 1640c36.48,-31.45 63.11,-70.17 74.85,-159.37 11.74,-89.21 -27.1,-205.55 -92.74,-214.19 -65.64,-8.64 -132.7,89.54 -144.98,182.91 -12.28,93.37 3.3,142.77 37.4,180.72 24.96,-10.41 97.36,-3.18 125.48,9.93z"/>
    <ellipse class="fil11" cx="1569.14" cy="1418.28" rx="37.13" ry="75.13"/>
    <ellipse class="fil11" cx="1615.59" cy="1330.72" rx="9.62" ry="19.46"/>
    <ellipse class="fil11" transform="matrix(2.26653 0.298187 -0.298187 2.26653 2272.14 1442.8)" rx="14.36" ry="29.05"/>
    <ellipse class="fil11" transform="matrix(0.586985 0.0772243 -0.0772243 0.586985 2322.94 1371.43)" rx="14.36" ry="29.05"/>
    <line class="fil0 str3" x1="1419.81" y1="1688.76" x2="1403.57" y2= "1667.59" />
    <line class="fil0 str3" x1="1450.04" y1="1675.36" x2="1440.69" y2= "1650.37" />
    <path class="fil2 str4" d="M1569.97 1760.99c89.72,-4.09 168.52,-46.48 224.87,-110.33 54.76,-62.05 89.95,-146.17 94.13,-239.88 4.21,-94.35 -23.63,-184.15 -73.55,-254.8 -51.87,-73.41 -128.88,-127.94 -220.31,-143.91 -96.63,-16.88 -190.2,12.43 -261.87,75.71 -74.12,65.44 -122.41,165.06 -124.74,280.36 -2.3,114.36 41.21,217.31 110.86,289.29 66.7,68.92 155.91,107.87 250.6,103.55zm353.72 -304.74c5.2,2.89 10.52,5.34 15.96,7.31 9.09,3.31 18.49,5.24 28.13,5.67 10.51,0.47 20.7,-0.83 30.48,-3.72 6.43,-1.91 12.79,-4.53 19.07,-7.83 -0.41,-12.78 -0.31,-25.74 0.33,-38.84 5.08,-103.1 42.2,-192.91 96.71,-252.8 52.89,-58.11 120.65,-86.37 189.61,-73.22 65.59,12.5 119.93,60.3 155.64,125.91 34.49,63.37 52.34,144.69 46.59,230.7 -5.72,85.48 -33.9,162.49 -75.71,219.38 -42.92,58.39 -101.39,97.19 -166.39,101.12 -68.25,4.13 -130.96,-30.79 -176.46,-92.58 -33.63,-45.67 -57.41,-105.47 -66.5,-173.4 -5.06,2.27 -10.19,4.22 -15.41,5.85 -13.15,4.09 -26.58,6.06 -40.15,5.65 -12.61,-0.37 -25.04,-2.75 -37.21,-6.97 -4.55,-1.59 -9.07,-3.44 -13.56,-5.57 -16.86,69.01 -49.18,131.07 -92.65,181.04 -63.28,72.75 -152.12,121.9 -253.91,128.05 -108.22,6.54 -211.01,-36.46 -288.49,-114.55 -81.44,-82.07 -132.74,-200.68 -130.35,-333.02 2.4,-133.62 58.88,-248.69 145.42,-323.5 83.26,-71.97 191.33,-104.05 302.1,-82.93 103.98,19.82 190.91,83.1 249.07,167.06 55.7,80.39 86.52,181.86 81.63,288.12 -0.67,14.59 -2,28.96 -3.94,43.04zm342.82 273c57.21,-2.61 108.93,-36.17 147.02,-87.41 37.22,-50.07 62.31,-118.2 67.31,-193.98 5.03,-76.19 -11.04,-148.03 -41.85,-203.67 -31.78,-57.39 -79.85,-98.67 -137.52,-108.74 -60.25,-10.52 -119.11,14.94 -164.86,65.98 -46.96,52.38 -78.91,130.35 -83.42,219.65 -4.49,88.73 19.14,168.71 59.79,225.05 39.3,54.46 93.81,85.85 153.52,83.12z"/>
    <line class="fil0 str3" x1="1481.65" y1="1666.62" x2="1474.45" y2= "1640.93" />
    <line class="fil0 str3" x1="1518.19" y1="1668.23" x2="1519.24" y2= "1641.57" />
    <line class="fil0 str3" x1="1557.04" y1="1672.71" x2="1562.67" y2= "1646.63" />
    <line class="fil0 str3" x1="2296.3" y1="1701.7" x2="2301.93" y2= "1675.63" />
    <line class="fil0 str3" x1="2271.13" y1="1682" x2="2276.76" y2= "1655.92" />
    <line class="fil0 str3" x1="2246.09" y1="1675.32" x2="2244.72" y2= "1648.67" />
    <line class="fil0 str3" x1="2214.79" y1="1674.63" x2="2213.42" y2= "1647.98" />
    <line class="fil0 str3" x1="2188.24" y1="1677.76" x2="2179.65" y2= "1652.5" />
    <line class="fil0 str3" x1="2159.32" y1="1684.9" x2="2150.73" y2= "1659.63" />
    <path class="fil11" style="mask:url(#id2)" d="M1271.7 1365.3c0,0 246.67,-275.24 323.08,-321.94l0.94 -2.44 1.53 1c14.36,-8.22 21.91,-7.31 19.33,6.73 -6.19,33.69 -159.81,438.63 -206.49,561.56 300.02,-171.49 149.76,-87.29 483.13,-270 -665.68,418.84 -601.57,485.04 -314.83,-254.34 -178.59,166.58 -89.63,85.11 -306.69,279.43z"/>
    <path class="fil11" style="mask:url(#id4)" d="M2100.94 1425.41c0,0 150.96,-168.45 197.73,-197.03l0.57 -1.5 0.94 0.61c8.79,-5.03 13.41,-4.48 11.83,4.12 -3.79,20.62 -97.81,268.44 -126.37,343.68 183.61,-104.96 91.65,-53.42 295.68,-165.24 -407.4,256.33 -368.17,296.85 -192.68,-155.66 -109.3,101.95 -54.86,52.09 -187.7,171.01z"/>
   </g>
   <g>
    <path class="fil2" d="M556.18 1561.77c-153.75,108.88 -257.34,235.33 -313.63,351.57 -8.04,16.6 -73.4,191.79 -29.04,166.4 56.73,-32.46 178.05,-163.64 212.47,-195.74 34.09,-31.79 223.8,-212.89 177.48,-269.56 -18.8,-23.04 -30.06,-29.69 -47.28,-52.67zm-341.32 352.04c72.22,-149.11 215.62,-359.17 350.72,-453.35 -12.88,91.26 -13.6,73.28 46.56,146.89 10.56,12.91 5.09,183.21 -3.97,189.92 -111.56,82.72 -386.71,338.98 -420.5,348.98 -80.09,23.77 16.63,-210.63 27.19,-232.45z"/>
    <path class="fil1 str2" d="M242.55 1913.34c56.29,-116.24 159.88,-242.69 313.63,-351.57 17.22,22.98 28.48,29.64 47.28,52.67 46.32,56.67 -143.39,237.77 -177.48,269.56 -34.42,32.1 -155.74,163.28 -212.47,195.74 -44.36,25.39 21,-149.8 29.04,-166.4z"/>
   </g>
   <path class="fil10" d="M2091.19 857.76c-32.73,-22.35 -56.23,-16.85 -41.74,28.74 21.3,67.03 96.5,154.52 138.36,158.46 29.77,2.8 17.41,-45.32 -12.31,-93.38 -23.33,-37.71 -57.38,-75.46 -84.3,-93.82zm-100.07 -91.25c-23.55,-17.41 -45.54,-24.76 -46.67,-12.89 -1.33,14.06 26.07,45.48 56.8,64.72 26.57,16.65 40.46,14.22 34.88,-1.34 -4.87,-13.59 -23.93,-34.91 -45.01,-50.5z"/>
  </g>
 </g>
</svg>
