<?xml version="1.0" encoding="UTF-8"?>
<!DOCTYPE svg PUBLIC "-//W3C//DTD SVG 1.1//EN" "http://www.w3.org/Graphics/SVG/1.1/DTD/svg11.dtd">
<!-- Creator: CorelDRAW 2021 (64-Bit) -->
<svg xmlns="http://www.w3.org/2000/svg" xml:space="preserve" width="6.29921in" height="5.51181in" version="1.1" style="shape-rendering:geometricPrecision; text-rendering:geometricPrecision; image-rendering:optimizeQuality; fill-rule:evenodd; clip-rule:evenodd"
viewBox="0 0 6299.21 5511.81"
 xmlns:xlink="http://www.w3.org/1999/xlink"
 xmlns:xodm="http://www.corel.com/coreldraw/odm/2003">
 <defs>
  <style type="text/css">
   <![CDATA[
    .str1 {stroke:#373435;stroke-width:41.67;stroke-miterlimit:2.61313}
    .str2 {stroke:#373435;stroke-width:27.78;stroke-miterlimit:2.61313}
    .str0 {stroke:#373435;stroke-width:6.94;stroke-miterlimit:2.61313}
    .str3 {stroke:#F8ECDA;stroke-width:6.94;stroke-miterlimit:2.61313}
    .fil0 {fill:none}
    .fil13 {fill:#FEFEFE}
    .fil8 {fill:#E6E7E8}
    .fil9 {fill:#373435}
    .fil12 {fill:#FED089}
    .fil5 {fill:#F5886C}
    .fil7 {fill:#ED3237}
    .fil11 {fill:#F9D2A5}
    .fil17 {fill:#9FDCF8}
    .fil15 {fill:#00AFEF}
    .fil6 {fill:#C73E4E}
    .fil14 {fill:#D26270}
    .fil1 {fill:#373435;fill-rule:nonzero}
    .fil16 {fill:#373435;fill-rule:nonzero}
    .fil4 {fill:#F0555E;fill-rule:nonzero}
    .fil2 {fill:#F9D2A5;fill-rule:nonzero}
    .fil3 {fill:#CED8D5;fill-rule:nonzero}
    .fil10 {fill:#C73E4E;fill-rule:nonzero}
   ]]>
  </style>
    <clipPath id="id0">
     <path d="M4809.15 3368.98c0,-866.56 -1037.3,-1110.57 -1730.9,-1110.57 -694.57,0 -1749.79,237.43 -1749.79,1110.57 0,871.21 1055.04,1117.88 1749.79,1117.88 693.68,0 1730.9,-252.53 1730.9,-1117.88z"/>
    </clipPath>
    <mask id="id1">
  <linearGradient id="id2" gradientUnits="userSpaceOnUse" x1="1259" y1="2037.34" x2="3016.13" y2="3854.26">
   <stop offset="0" style="stop-opacity:1; stop-color:white"/>
   <stop offset="1" style="stop-opacity:0; stop-color:white"/>
  </linearGradient>
     <rect style="fill:url(#id2)" x="1614.15" y="2650.19" width="1096.62" height="799.19"/>
    </mask>
    <mask id="id3">
  <linearGradient id="id4" gradientUnits="userSpaceOnUse" x1="3068.94" y1="2037.34" x2="4826.07" y2="3854.26">
   <stop offset="0" style="stop-opacity:1; stop-color:white"/>
   <stop offset="1" style="stop-opacity:0; stop-color:white"/>
  </linearGradient>
     <rect style="fill:url(#id4)" x="3424.09" y="2650.19" width="1096.61" height="799.19"/>
    </mask>
 </defs>
 <g id="Layer_x0020_1">
  <metadata id="CorelCorpID_0Corel-Layer"/>
  <rect class="fil0" x="-0.39" y="0.76" width="6299.21" height="5511.81"/>
  <g id="_1899384988448">
   <g>
    <path class="fil1" d="M4883.76 2583.4c37.17,97.29 69.08,275.56 42.02,437.49 -31.31,-2.91 -56.61,-59.94 -84.07,-36.4 9.55,41.27 64.63,33.11 75.72,73 -24.52,167.56 -78.82,303.2 -159.8,410.05l80.99 243.26c405.18,-139.19 1050.96,-360.51 1138.3,-689.9 10.52,-75.13 -2.5,-165.03 0,-246.19 4.89,-151.6 20.45,-298.74 16.35,-454.63 -1.54,-62.47 -6.42,-126.31 -16.35,-192.48 -23.54,-157.64 -107.22,-305.56 -92.63,-437.52 3.7,-31.54 35.61,-61.31 42.24,-100.23 21.02,-123.38 0.57,-266.61 -33.69,-355.57 92.66,-94.01 152,-224 159.8,-410.06 3.58,-11.75 -28.84,-258.96 -8.37,-373.67 9.73,-101.8 -17.71,-163.3 -67.35,-200.47 -28.21,5.85 -78.03,-11.87 -92.63,8.96 -35.42,-47.7 -165.02,-88.56 -209.99,-18.29 -26.46,-65.37 -119.31,-58.96 -201.82,-63.63 -32.31,-7.61 -32.69,19.26 -42.24,36.39 -65.57,-48.46 -184.31,-39.33 -260.6,-9.14 -52.29,150.12 -8.57,180.92 -8.57,364.71 0,45.72 6.63,84.08 16.94,118.52 -100.8,65.57 -109.76,149.46 -75.72,273.26 25.11,90.89 54.11,143.03 109.38,209.8 32.72,39.11 66.76,74.74 92.46,100.23 -44,111.13 4.26,218.94 -8.39,364.52 1.57,25.68 40.11,11.46 33.69,45.72 8.37,154.72 -74.35,281.04 -92.65,410.08 -17.51,125.73 -1.57,226.93 8.57,346.43 -157.65,-7.01 -253.6,53.11 -353.05,109.37l-8.56 36.39zm437.3 -947.99l0 -81.94c169.53,-53.9 381.08,-62.07 571.79,-45.72 -2.5,44.16 18.51,73.16 0,109.38 -182.15,-17.12 -361.01,19.64 -571.79,18.29zm-8.55 -109.38c1.94,-47.5 0,-91.09 -8.36,-127.67 190.7,-62.69 374.23,-51.98 588.7,-27.24l0 109.35c-182.74,-20.04 -413.94,-4.85 -580.34,45.56zm-8.36 -145.77c-3.32,-40.29 2.51,-70.45 16.91,-91.28 164.86,-52.95 362.01,-50.04 555.07,-27.24 10.12,16.15 0.78,52.74 16.72,81.93 -182.53,-25.3 -421.54,-46.91 -588.7,36.59zm-470.99 2050.7c-7.58,-34.26 26.27,-58.77 42.24,-91.08 37.74,-77.07 49.04,-177.68 75.69,-264.29 47.31,15.97 127.67,31.13 193.46,18.28 86.02,-16.93 198.53,-108.97 201.82,-164.05 -87.37,100.61 -223.8,175.73 -395.28,109.38 33.09,-155.32 14.22,-353.44 -33.66,-474.09 87.18,-50.41 210.59,-102.96 344.67,-72.8 39.7,115.02 94.38,213.69 168.15,291.54 -10.52,3.91 -16.94,11.87 -16.72,27.24 -37.77,-1.16 -26.49,-56.44 -67.17,-54.68 4.09,36.01 70.86,77.26 33.48,100.42 -1.95,-31.34 -24.91,-39.7 -50.41,-45.74 13.52,25.04 24.54,58.18 50.41,72.99 37.56,-14 40.48,-65.4 67.34,-91.09 24.52,43.61 76.69,105.11 117.74,100.23 -158.22,-193.24 -347.98,-402.07 -294.26,-793.05 17.88,-130.99 109.18,-297.39 92.26,-437.33 151.03,-9.52 296.2,-42.42 496.27,-18.29 -17.91,222.45 69.1,341.17 92.43,510.3 26.09,187.6 13.06,361.41 0,537.93 -12.83,175.15 12.87,364.9 -50.38,455.8 -195.02,89.31 -395.49,172.83 -613.85,237.05 -8.36,-5.67 5.07,-58.4 -33.66,-54.7 -9.55,37.57 17.7,35.41 16.93,63.65 -50.41,3.11 -89.33,18.67 -134.68,27.43 1.95,-31.72 14.41,-50.6 -8.38,-72.99 -44.38,14.22 16.93,77.85 -16.92,72.99l-25.11 0c-24.33,-4.09 7.39,-68.89 -16.76,-72.99 -31.5,2.34 2.35,75.52 -33.85,72.99 -28.62,-15.18 22.39,-59.93 -16.53,-63.84 -29.97,26.27 -5.07,66.37 -42.24,72.8 -8.17,-41.64 29.59,-63.43 8.36,-91.08 -43.97,5.44 -17.13,88.74 -41.83,91.08l-25.3 0c-17.32,-16.35 22.57,-48.07 16.75,-81.94 -38.17,7.2 -28.24,66.57 -58.78,81.94 -7.8,-39.11 39.3,-66.17 25.09,-81.94 -50.39,-3.1 -17.51,84.07 -67.33,81.94z"/>
   </g>
   <path class="fil1" d="M5455.55 751.24c-29,-93.04 28.61,-8.17 0,0l0 0z"/>
   <path class="fil1" d="M5775.11 751.24c-47.29,37.95 -23.93,-14.98 0,0l0 0z"/>
   <path class="fil2" d="M5741.63 3139.41c3.13,-45.13 58.58,-33.48 83.89,-54.68 28.81,-41.65 17.72,-126.5 58.78,-154.91 -3.51,64.03 -21.2,114.42 -25.11,154.91 -30.35,27.83 -67.33,48.26 -117.55,54.68zm-151.41 -793.06c1.75,-7.2 7.01,-10.52 16.73,-9.15 25.89,154.13 93.43,311.96 84.07,473.88 -26.08,-162.89 -79.6,-296.39 -100.8,-464.74zm-25.3 -118.52c0,-13.24 -3.12,-74.55 8.37,-45.56 -0.19,13.43 3.32,74.74 -8.37,45.56zm-16.75 -236.86c-2.51,-12.65 5.07,-35.63 8.17,-18.5 2.54,12.65 -5.04,35.82 -8.17,18.5zm-159.95 1348.91c-14.22,0.38 -21.42,-7.01 -25.3,-18.29 13.41,0.78 29.19,-1.16 25.3,18.29zm-142.86 45.74c-26.48,4.07 -27.05,-19.66 -25.11,-45.74 21.01,3.69 38.52,31.13 25.11,45.74zm-58.99 18.1c-35.98,10.69 -35.98,-74.55 0,-63.85 0,21.41 0,42.62 0,63.85zm-310.98 -63.85c-15.97,32.31 -49.82,56.83 -42.24,91.09 49.82,2.13 16.94,-85.04 67.33,-81.94 14.21,15.78 -32.89,42.83 -25.09,81.94 30.54,-15.37 20.61,-74.74 58.77,-81.94 5.83,33.88 -34.07,65.59 -16.75,81.94 8.36,0 16.75,0 25.3,0 24.71,-2.34 -2.13,-85.63 41.84,-91.09 21.23,27.65 -16.53,49.44 -8.36,91.09 37.17,-6.42 12.27,-46.52 42.24,-72.8 38.92,3.91 -12.09,48.66 16.54,63.84 36.19,2.53 2.34,-70.65 33.85,-72.99 24.14,4.09 -7.58,68.89 16.75,72.99 8.56,0 16.73,0 25.11,0 33.85,4.85 -27.46,-58.77 16.92,-72.99 22.79,22.39 10.33,41.26 8.38,72.99 45.35,-8.76 84.27,-24.33 134.68,-27.43 0.76,-28.24 -26.48,-26.08 -16.93,-63.65 38.72,-3.7 25.3,49.04 33.66,54.7 218.35,-64.22 418.82,-147.73 613.84,-237.05 63.25,-90.9 37.55,-280.65 50.39,-455.8 13.06,-176.52 26.08,-350.33 0,-537.93 -23.33,-169.13 -110.35,-287.84 -92.44,-510.3 -200.06,-24.13 -345.24,8.77 -496.26,18.3 16.91,139.93 -74.37,306.33 -92.25,437.32 -53.73,390.98 136.03,599.81 294.26,793.05 -41.05,4.88 -93.22,-56.62 -117.74,-100.23 -26.86,25.7 -29.78,77.09 -67.35,91.09 -9.52,-5.45 -17.13,-13.22 -23.36,-22.39l-28.02 7.41c9.93,13.81 12.87,34.45 1,42.43l16.91 18.29c-3.29,55.08 -115.8,147.11 -201.81,164.06 -65.79,12.84 -146.15,-2.32 -193.46,-18.29 -26.65,86.61 -37.95,187.22 -75.69,264.29z"/>
   <path class="fil2" d="M5312.51 2929.82c-35.23,1.94 -23.35,-47.5 -41.84,-64.04 28.21,5.83 38.71,30.94 41.84,64.04zm-41.84 27.24c-5.07,-5.64 -19.66,-43.21 0,-45.54 4.67,5.45 19.64,43.19 0,45.54zm-25.3 18.1c-25.3,14.22 -22.19,-47.09 -8.57,-45.34 -3.29,21.79 15.57,19.63 8.57,45.34zm-42.05 18.29c-2.31,-20.63 1.95,-34.26 16.94,-36.39 -2.16,16.16 8.17,45.72 -16.94,36.39zm-285.89 -428.34c47.88,120.66 66.76,318.77 33.67,474.09 171.47,66.36 307.91,-8.77 395.27,-109.38l-16.91 -18.29c-7.98,-18.5 -17.13,-36.01 -25.3,-54.7 9.52,-1.75 18.29,3.88 24.3,12.27l28.02 -7.41c-10.3,-15.17 -17.88,-33.67 -27.03,-50.6 25.49,6.04 48.45,14.41 50.39,45.75 37.39,-23.17 -29.38,-64.41 -33.48,-100.42 40.68,-1.76 29.4,53.51 67.16,54.67 -0.21,-15.38 6.21,-23.33 16.73,-27.24 -73.78,-77.85 -128.45,-176.52 -168.15,-291.53 -134.09,-30.16 -257.49,22.39 -344.67,72.8z"/>
   <path class="fil2" d="M5169.65 250.09c-20.23,30.37 -9.54,51.2 -5.85,80.78 0.99,7.2 5.34,107.1 4.78,115.68l12.28 -90.31c1.56,-21.03 0.08,-44.25 -2.83,-69.74 38.35,34.64 10.9,117.53 8.36,173.02 -2.91,68.7 -1.74,134.27 8.58,191.71 12.06,31.11 56.43,-41.28 75.71,-64.04 27.43,-32.5 64.42,-67.14 75.69,-100.24 39.91,-2.32 58.2,-27.83 92.25,-36.39 2.15,-90.5 -10.89,-164.26 -33.47,-227.9 -79.01,-13.81 -192.86,-36.8 -235.48,27.43z"/>
   <path class="fil1" d="M5186.38 3339.88c-35.98,-10.7 -35.98,74.53 0,63.85 0,-21.22 0,-42.43 0,-63.85z"/>
   <path class="fil1" d="M5220.26 2957.07c-15,2.13 -19.26,15.76 -16.94,36.39 25.12,9.33 14.79,-20.23 16.94,-36.39z"/>
   <path class="fil1" d="M5220.26 3339.88c-1.94,26.08 -1.38,49.82 25.11,45.74 13.41,-14.61 -4.09,-42.05 -25.11,-45.74z"/>
   <path class="fil1" d="M5236.79 2929.82c-13.62,-1.75 -16.72,59.56 8.57,45.34 6.99,-25.71 -11.87,-23.55 -8.57,-45.34z"/>
   <path class="fil1" d="M5270.67 2911.53c-19.66,2.32 -5.07,39.89 0,45.54 19.64,-2.34 4.67,-40.08 0,-45.54z"/>
   <path class="fil1" d="M5270.67 2865.78c18.48,16.54 6.61,65.98 41.84,64.04 -3.13,-33.09 -13.63,-58.21 -41.84,-64.04z"/>
   <path class="fil3" d="M5321.06 1288.98c-14.4,20.82 -20.22,50.98 -16.91,91.28 167.16,-83.51 406.17,-61.91 588.7,-36.6 -15.94,-29.19 -6.61,-65.76 -16.73,-81.92 -193.06,-22.8 -390.2,-25.71 -555.07,27.24z"/>
   <path class="fil1" d="M5328.45 2869.1c-6.02,-8.39 -14.78,-14.02 -24.3,-12.27 8.17,18.69 17.31,36.19 25.3,54.7 11.87,-7.98 8.93,-28.61 -1,-42.43z"/>
   <path class="fil4" d="M5304.15 1398.36c8.36,36.58 10.3,80.17 8.36,127.67 166.4,-50.41 397.6,-65.6 580.34,-45.56 0,-36.39 0,-72.78 0,-109.35 -214.47,-24.73 -398,-35.44 -588.7,27.24z"/>
   <path class="fil3" d="M5321.06 1553.46c0,27.24 0,54.7 0,81.95 210.78,1.35 389.64,-35.42 571.8,-18.3 18.5,-36.22 -2.51,-65.22 0,-109.38 -190.71,-16.35 -402.26,-8.17 -571.8,45.72z"/>
   <path class="fil1" d="M5362.92 3321.59c3.89,11.28 11.09,18.67 25.3,18.29 3.88,-19.45 -11.89,-17.51 -25.3,-18.29z"/>
   <path class="fil2" d="M5396.77 805.94c48.66,10.3 40.3,-41.28 41.84,-82.14 -12.46,29.19 -40.46,41.27 -41.84,82.14z"/>
   <path class="fil2" d="M5455.55 778.48c-40.3,-7.58 39.89,58.59 0,9.35 -0.38,-0.59 0.59,-8.95 0,-9.35z"/>
   <path class="fil2" d="M5455.55 751.24c28.61,-8.17 -29,-93.04 0,0l0 0z"/>
   <path class="fil2" d="M5438.61 250.09c20.82,50.41 18.31,126.13 25.3,191.33 42.24,-5.86 54.9,-44.19 109.38,-36.61 58.96,68.52 31.15,225.96 -42.03,255.36 -80.65,44.88 -38.82,121.94 -16.75,127.67 185.66,-40.49 121.84,-406.95 117.56,-574.32 -76.69,-1.15 -159.58,-9.14 -193.46,36.58z"/>
   <path class="fil2" d="M5623.7 769.55c-14.41,-36.2 -48.47,54.08 -92.44,45.53 94.39,64.82 148.09,173.61 134.69,355.57l-0.59 56.83c78.62,0.96 155.1,1.35 218.94,-11.49 72.02,-110.35 154.13,-209.4 126.31,-428.16 -81.75,-44.96 -156.28,64.41 -227.11,-18.28 -37.77,37.74 -106.28,72.96 -134.5,27.24 -24.92,12.65 -34.25,42.02 -58.77,54.67 -19.26,-24.33 37.96,-43.21 33.48,-81.92z"/>
   <path class="fil1" d="M5556.35 1972.47c-3.1,-17.13 -10.69,5.85 -8.17,18.5 3.13,17.32 10.71,-5.85 8.17,-18.5z"/>
   <path class="fil1" d="M5573.29 2182.28c-11.49,-29 -8.37,32.31 -8.37,45.56 11.69,29.19 8.17,-32.13 8.37,-45.56z"/>
   <path class="fil1" d="M5606.96 2337.2c-9.72,-1.37 -14.98,1.95 -16.73,9.15 21.2,168.35 74.72,301.84 100.8,464.74 9.35,-161.93 -58.18,-319.75 -84.07,-473.88z"/>
   <path class="fil2" d="M5657.37 660.17c-6.8,36.58 -29.59,60.12 -25.3,91.07 99.78,95.3 154.77,-43.23 168.35,-72.78 33.28,-140.31 71.43,-304.78 25.11,-437.7 -55.46,-15.97 -110.35,-22.95 -151.22,9.33 -21.79,122.03 5.64,287.46 -16.93,410.08z"/>
   <path class="fil1" d="M5825.52 3084.73c-25.3,21.2 -80.76,9.55 -83.89,54.68 50.22,-6.42 87.2,-26.84 117.55,-54.68 3.91,-40.49 21.6,-90.88 25.11,-154.91 -41.05,28.41 -29.96,113.26 -58.78,154.91z"/>
   <path class="fil2" d="M5876.12 286.5c-18.69,133.12 0.79,251.45 -42.24,355.36 -17.45,161.9 136.77,109.89 148.83,37.68 20.18,-76.05 84.7,-317.54 -14.15,-402.2 -30.94,3.13 -74.53,-7.77 -92.44,9.17z"/>
   <path class="fil5" d="M5034.55 2850.7c41.99,-17.8 51.83,-47.78 57.95,-78.74l2.93 -12.65c1.35,-21.9 18.51,-59.85 39.84,-76.72 14.09,-11.12 36.28,-0.77 50.2,7.27 -8.17,-11.96 -8.84,-10.22 -23.98,-19.65 12.4,-3.13 26.35,-1.81 39.47,-4.07 17.92,-3.09 22.23,-9.42 40.59,-5.74 10.61,2.13 128.81,49.61 7.91,-1.5 -9.73,-4.11 -13.22,-1.92 -21.69,-4.14 12.39,-15.02 19.07,-15.07 27.31,-42.91 3.86,-13.02 15.01,-6.23 21.34,-2.82 10.13,5.45 15.93,-1.43 28.46,-1.59 -7.27,-4.19 -14.95,4.87 -24.73,0.74 -7.56,-3.2 -11.89,-9.3 -22.64,-5l3.33 -37.6c-5.31,7.19 -3.89,45.31 -20.17,65.08 -16.18,15.8 -18.56,25.54 -45.29,27.37 -28.79,1.96 -46.86,-2.94 -73.35,19.61 -51.64,43.95 -34.24,108.48 -63.6,132.22 -6.63,-40.68 -27.83,-28.94 -37.83,-53.17 -6.06,-14.69 0.42,-22.16 3.41,-30.67 3.46,-9.84 -5.12,-28.59 -1.23,-32.36 -3.65,4.63 -0.91,12.93 0.11,20.13 1.41,9.98 -2.3,12.39 -5.39,19.06 -5.57,12.03 -2.13,29.28 10.26,40.52 10.91,9.88 23.48,14.94 24.01,34.42 0.41,15.29 -17.14,23.17 -33.64,26.38 -30.57,5.92 -47.81,-10.55 -86.42,4.58 -28.21,11.05 -56.33,39.86 -51.51,62.89 5.57,-5.12 11.55,-16.65 21.62,-25.59 9.92,-8.8 21.77,-15.38 35.18,-19.37 28.91,-8.59 45.95,-0.52 70.29,-0.46 15.97,0.04 46.02,32.96 60.91,53.08l-33.64 -58.59z"/>
   <path class="fil5" d="M5460.54 2428.41c-0.48,-45.6 -24.45,-66.12 -50.76,-83.56l-10.58 -7.52c-19.74,-9.58 -48.3,-39.9 -55.78,-66.05 -4.91,-17.26 13.1,-33.84 25.83,-43.66 -14.17,3 -12.81,4.29 -27.3,14.69 1.82,-12.66 8.35,-25.06 11.25,-38.05 3.96,-17.75 -0.24,-24.15 10.15,-39.72 6,-9 94.91,-100.23 1.63,-7.88 -7.5,7.43 -6.81,11.49 -12.08,18.47 -9.17,-17.17 -6.68,-23.37 -29.28,-41.58 -10.57,-8.53 -0.05,-16.26 5.51,-20.81 8.89,-7.3 4.74,-15.27 9.36,-26.92 -6.65,5.13 -1.19,15.68 -8.73,23.15 -5.83,5.77 -13.12,7.46 -13.24,19.04l-33.5 -17.39c4.63,7.65 40.42,20.85 52.5,43.43 8.45,20.97 16.56,26.88 8.07,52.3 -9.15,27.37 -20.56,42.22 -9.79,75.3 20.99,64.48 87.28,72.96 98.06,109.15 -40.14,-9.35 -37.35,14.72 -63.57,14.74 -15.89,0.02 -20.33,-8.82 -27.06,-14.82 -7.79,-6.94 -28.39,-6.15 -30.39,-11.19 2.89,5.14 11.61,5.76 18.66,7.57 9.76,2.5 10.58,6.85 15.57,12.24 9.01,9.73 26.27,13.12 41.38,5.93 13.29,-6.33 22.75,-16.03 40.96,-9.1 14.3,5.44 14.91,24.67 11.59,41.15 -6.16,30.52 -27.95,40.2 -28.66,81.65 -0.51,30.29 15.42,67.26 38.55,71.57 -2.61,-7.11 -11,-17.02 -15.43,-29.73 -4.35,-12.52 -5.93,-25.99 -4.52,-39.91 3.06,-30 17.01,-42.69 26.33,-65.17 6.12,-14.76 48,-30 72.27,-36.12l-66.98 8.81z"/>
   <path class="fil2" d="M5127.61 760.59c-18.85,26.84 -31.72,70.46 -25.3,127.27 17.13,148.51 137.81,271.7 218.75,373.88 93.44,-39.52 221.49,-35.82 344.3,-34.26l0.59 -56.83c-29.99,-13.62 -21.04,-58.19 -25.3,-82.13 -28.02,-155.5 -69.3,-290.19 -285.89,-255.34 -7.2,22.96 -11.11,49.04 -8.39,82.14 -70.83,-82.33 69.67,-165.43 92.25,-236.85 78.63,-21.22 141.88,-59.18 143.04,-164.08 -31.72,-7.18 -76.28,42.64 -126.1,45.56 -23.74,-7.6 -9.93,-56.06 -25.3,-72.99 -100.42,10.9 -162.3,160.17 -235.29,227.9 -27.43,25.49 -53.7,25.89 -67.35,45.74z"/>
   <g>
    <path class="fil1" d="M1387.03 2583.4c-37.17,97.29 -69.08,275.56 -42.02,437.49 31.31,-2.91 56.61,-59.94 84.07,-36.4 -9.55,41.27 -64.63,33.11 -75.72,73 24.52,167.56 78.82,303.2 159.79,410.05l-80.98 243.26c-405.18,-139.19 -1050.96,-360.51 -1138.3,-689.9 -10.52,-75.13 2.5,-165.03 0,-246.19 -4.89,-151.6 -20.45,-298.74 -16.35,-454.63 1.54,-62.47 6.42,-126.31 16.35,-192.48 23.54,-157.64 107.22,-305.56 92.62,-437.52 -3.7,-31.54 -35.61,-61.31 -42.23,-100.23 -21.02,-123.38 -0.57,-266.61 33.69,-355.57 -92.66,-94.01 -152,-224 -159.8,-410.06 -3.58,-11.75 28.84,-258.96 8.37,-373.67 -9.73,-101.8 17.72,-163.3 67.36,-200.47 28.21,5.85 78.03,-11.87 92.62,8.96 35.42,-47.7 165.02,-88.56 209.99,-18.29 26.46,-65.37 119.3,-58.96 201.81,-63.63 32.31,-7.61 32.69,19.26 42.24,36.39 65.57,-48.46 184.31,-39.33 260.6,-9.14 52.29,150.12 8.57,180.92 8.57,364.71 0,45.72 -6.63,84.08 -16.94,118.52 100.8,65.57 109.76,149.46 75.71,273.26 -25.11,90.89 -54.1,143.03 -109.38,209.8 -32.72,39.11 -66.76,74.74 -92.46,100.23 44,111.13 -4.26,218.94 8.39,364.52 -1.57,25.68 -40.11,11.46 -33.69,45.72 -8.37,154.72 74.35,281.04 92.65,410.08 17.51,125.73 1.57,226.93 -8.57,346.43 157.65,-7.01 253.6,53.11 353.05,109.37l8.56 36.39zm-437.3 -947.99l0 -81.94c-169.53,-53.9 -381.08,-62.07 -571.79,-45.72 2.5,44.16 -18.51,73.16 0,109.38 182.15,-17.12 361.01,19.64 571.79,18.29zm8.55 -109.38c-1.94,-47.5 0,-91.09 8.36,-127.67 -190.7,-62.69 -374.23,-51.98 -588.7,-27.24l0 109.35c182.74,-20.04 413.94,-4.85 580.33,45.56zm8.36 -145.77c3.32,-40.29 -2.51,-70.45 -16.91,-91.28 -164.86,-52.95 -362.01,-50.04 -555.07,-27.24 -10.12,16.15 -0.78,52.74 -16.72,81.93 182.53,-25.3 421.54,-46.91 588.7,36.59zm470.99 2050.7c7.58,-34.26 -26.27,-58.77 -42.24,-91.08 -37.74,-77.07 -49.04,-177.68 -75.69,-264.29 -47.31,15.97 -127.67,31.13 -193.46,18.28 -86.02,-16.93 -198.52,-108.97 -201.81,-164.05 87.37,100.61 223.8,175.73 395.27,109.38 -33.09,-155.32 -14.22,-353.44 33.67,-474.09 -87.18,-50.41 -210.59,-102.96 -344.67,-72.8 -39.7,115.02 -94.38,213.69 -168.15,291.54 10.52,3.91 16.94,11.87 16.72,27.24 37.77,-1.16 26.49,-56.44 67.17,-54.68 -4.1,36.01 -70.86,77.26 -33.48,100.42 1.95,-31.34 24.91,-39.7 50.41,-45.74 -13.52,25.04 -24.54,58.18 -50.41,72.99 -37.56,-14 -40.48,-65.4 -67.34,-91.09 -24.52,43.61 -76.69,105.11 -117.74,100.23 158.23,-193.24 347.98,-402.07 294.26,-793.05 -17.89,-130.99 -109.18,-297.39 -92.26,-437.33 -151.03,-9.52 -296.2,-42.42 -496.27,-18.29 17.91,222.45 -69.1,341.17 -92.43,510.3 -26.09,187.6 -13.06,361.41 0,537.93 12.83,175.15 -12.87,364.9 50.38,455.8 195.02,89.31 395.49,172.83 613.85,237.05 8.36,-5.67 -5.07,-58.4 33.66,-54.7 9.55,37.57 -17.7,35.41 -16.93,63.65 50.41,3.11 89.33,18.67 134.68,27.43 -1.95,-31.72 -14.41,-50.6 8.38,-72.99 44.38,14.22 -16.94,77.85 16.92,72.99l25.11 0c24.32,-4.09 -7.39,-68.89 16.76,-72.99 31.5,2.34 -2.35,75.52 33.85,72.99 28.62,-15.18 -22.39,-59.93 16.53,-63.84 29.97,26.27 5.07,66.37 42.24,72.8 8.17,-41.64 -29.59,-63.43 -8.36,-91.08 43.97,5.44 17.13,88.74 41.84,91.08l25.3 0c17.32,-16.35 -22.57,-48.07 -16.75,-81.94 38.17,7.2 28.24,66.57 58.77,81.94 7.8,-39.11 -39.3,-66.17 -25.09,-81.94 50.39,-3.1 17.51,84.07 67.33,81.94z"/>
   </g>
   <path class="fil1" d="M815.23 751.24c29,-93.04 -28.61,-8.17 0,0l0 0z"/>
   <path class="fil1" d="M495.67 751.24c47.29,37.95 23.93,-14.98 0,0l0 0z"/>
   <path class="fil2" d="M529.15 3139.41c-3.13,-45.13 -58.59,-33.48 -83.89,-54.68 -28.81,-41.65 -17.72,-126.5 -58.77,-154.91 3.5,64.03 21.2,114.42 25.11,154.91 30.35,27.83 67.33,48.26 117.55,54.68zm151.41 -793.06c-1.75,-7.2 -7.01,-10.52 -16.73,-9.15 -25.89,154.13 -93.43,311.96 -84.08,473.88 26.08,-162.89 79.61,-296.39 100.81,-464.74zm25.3 -118.52c0,-13.24 3.12,-74.55 -8.37,-45.56 0.19,13.43 -3.32,74.74 8.37,45.56zm16.75 -236.86c2.51,-12.65 -5.07,-35.63 -8.17,-18.5 -2.54,12.65 5.04,35.82 8.17,18.5zm159.95 1348.91c14.22,0.38 21.42,-7.01 25.3,-18.29 -13.41,0.78 -29.19,-1.16 -25.3,18.29zm142.85 45.74c26.49,4.07 27.05,-19.66 25.11,-45.74 -21.01,3.69 -38.52,31.13 -25.11,45.74zm58.99 18.1c35.99,10.69 35.99,-74.55 0,-63.85 0,21.41 0,42.62 0,63.85zm310.98 -63.85c15.97,32.31 49.82,56.83 42.24,91.09 -49.82,2.13 -16.94,-85.04 -67.33,-81.94 -14.21,15.78 32.89,42.83 25.09,81.94 -30.54,-15.37 -20.61,-74.74 -58.78,-81.94 -5.83,33.88 34.07,65.59 16.75,81.94 -8.36,0 -16.75,0 -25.31,0 -24.7,-2.34 2.14,-85.63 -41.83,-91.09 -21.23,27.65 16.53,49.44 8.36,91.09 -37.17,-6.42 -12.27,-46.52 -42.24,-72.8 -38.93,3.91 12.09,48.66 -16.54,63.84 -36.2,2.53 -2.34,-70.65 -33.85,-72.99 -24.14,4.09 7.58,68.89 -16.75,72.99 -8.56,0 -16.73,0 -25.12,0 -33.85,4.85 27.46,-58.77 -16.91,-72.99 -22.79,22.39 -10.33,41.26 -8.38,72.99 -45.35,-8.76 -84.27,-24.33 -134.69,-27.43 -0.76,-28.24 26.49,-26.08 16.94,-63.65 -38.73,-3.7 -25.3,49.04 -33.66,54.7 -218.35,-64.22 -418.82,-147.73 -613.84,-237.05 -63.25,-90.9 -37.55,-280.65 -50.39,-455.8 -13.06,-176.52 -26.08,-350.33 0,-537.93 23.33,-169.13 110.35,-287.84 92.44,-510.3 200.06,-24.13 345.24,8.77 496.26,18.3 -16.92,139.93 74.37,306.33 92.25,437.32 53.73,390.98 -136.02,599.81 -294.25,793.05 41.05,4.88 93.22,-56.62 117.74,-100.23 26.86,25.7 29.78,77.09 67.35,91.09 9.52,-5.45 17.13,-13.22 23.37,-22.39l28.02 7.41c-9.93,13.81 -12.87,34.45 -1,42.43l-16.92 18.29c3.29,55.08 115.8,147.11 201.82,164.06 65.79,12.84 146.15,-2.32 193.46,-18.29 26.65,86.61 37.95,187.22 75.69,264.29z"/>
   <path class="fil2" d="M958.28 2929.82c35.23,1.94 23.35,-47.5 41.83,-64.04 -28.21,5.83 -38.7,30.94 -41.83,64.04zm41.83 27.24c5.07,-5.64 19.67,-43.21 0,-45.54 -4.67,5.45 -19.63,43.19 0,45.54zm25.3 18.1c25.3,14.22 22.2,-47.09 8.58,-45.34 3.29,21.79 -15.57,19.63 -8.58,45.34zm42.06 18.29c2.31,-20.63 -1.95,-34.26 -16.94,-36.39 2.16,16.16 -8.17,45.72 16.94,36.39zm285.89 -428.34c-47.88,120.66 -66.76,318.77 -33.67,474.09 -171.47,66.36 -307.91,-8.77 -395.28,-109.38l16.92 -18.29c7.98,-18.5 17.13,-36.01 25.3,-54.7 -9.52,-1.75 -18.28,3.88 -24.3,12.27l-28.02 -7.41c10.3,-15.17 17.88,-33.67 27.03,-50.6 -25.49,6.04 -48.45,14.41 -50.39,45.75 -37.38,-23.17 29.38,-64.41 33.48,-100.42 -40.67,-1.76 -29.4,53.51 -67.16,54.67 0.21,-15.38 -6.21,-23.33 -16.73,-27.24 73.78,-77.85 128.45,-176.52 168.15,-291.53 134.08,-30.16 257.49,22.39 344.67,72.8z"/>
   <path class="fil2" d="M1101.13 250.09c20.23,30.37 9.54,51.2 5.85,80.78 -0.99,7.2 -5.34,107.1 -4.78,115.68l-12.28 -90.31c-1.56,-21.03 -0.08,-44.25 2.83,-69.74 -38.35,34.64 -10.9,117.53 -8.36,173.02 2.92,68.7 1.75,134.27 -8.57,191.71 -12.06,31.11 -56.43,-41.28 -75.72,-64.04 -27.43,-32.5 -64.41,-67.14 -75.69,-100.24 -39.9,-2.32 -58.2,-27.83 -92.25,-36.39 -2.15,-90.5 10.89,-164.26 33.47,-227.9 79.02,-13.81 192.87,-36.8 235.49,27.43z"/>
   <path class="fil1" d="M1084.4 3339.88c35.99,-10.7 35.99,74.53 0,63.85 0,-21.22 0,-42.43 0,-63.85z"/>
   <path class="fil1" d="M1050.52 2957.07c15,2.13 19.26,15.76 16.94,36.39 -25.12,9.33 -14.79,-20.23 -16.94,-36.39z"/>
   <path class="fil1" d="M1050.52 3339.88c1.94,26.08 1.38,49.82 -25.11,45.74 -13.41,-14.61 4.1,-42.05 25.11,-45.74z"/>
   <path class="fil1" d="M1033.99 2929.82c13.62,-1.75 16.72,59.56 -8.58,45.34 -6.99,-25.71 11.87,-23.55 8.58,-45.34z"/>
   <path class="fil1" d="M1000.11 2911.53c19.67,2.32 5.07,39.89 0,45.54 -19.63,-2.34 -4.67,-40.08 0,-45.54z"/>
   <path class="fil1" d="M1000.11 2865.78c-18.48,16.54 -6.61,65.98 -41.83,64.04 3.13,-33.09 13.63,-58.21 41.83,-64.04z"/>
   <path class="fil3" d="M949.72 1288.98c14.4,20.82 20.23,50.98 16.91,91.28 -167.16,-83.51 -406.17,-61.91 -588.7,-36.6 15.94,-29.19 6.61,-65.76 16.73,-81.92 193.05,-22.8 390.2,-25.71 555.06,27.24z"/>
   <path class="fil1" d="M942.33 2869.1c6.02,-8.39 14.78,-14.02 24.3,-12.27 -8.17,18.69 -17.31,36.19 -25.3,54.7 -11.87,-7.98 -8.93,-28.61 1,-42.43z"/>
   <path class="fil4" d="M966.63 1398.36c-8.36,36.58 -10.3,80.17 -8.36,127.67 -166.4,-50.41 -397.6,-65.6 -580.34,-45.56 0,-36.39 0,-72.78 0,-109.35 214.47,-24.73 398,-35.44 588.7,27.24z"/>
   <path class="fil3" d="M949.72 1553.46c0,27.24 0,54.7 0,81.95 -210.77,1.35 -389.64,-35.42 -571.79,-18.3 -18.5,-36.22 2.51,-65.22 0,-109.38 190.71,-16.35 402.26,-8.17 571.79,45.72z"/>
   <path class="fil1" d="M907.86 3321.59c-3.89,11.28 -11.09,18.67 -25.3,18.29 -3.88,-19.45 11.89,-17.51 25.3,-18.29z"/>
   <path class="fil2" d="M874.01 805.94c-48.66,10.3 -40.3,-41.28 -41.84,-82.14 12.46,29.19 40.46,41.27 41.84,82.14z"/>
   <path class="fil2" d="M815.23 778.48c40.3,-7.58 -39.89,58.59 0,9.35 0.38,-0.59 -0.59,-8.95 0,-9.35z"/>
   <path class="fil2" d="M815.23 751.24c-28.61,-8.17 29,-93.04 0,0l0 0z"/>
   <path class="fil2" d="M832.17 250.09c-20.82,50.41 -18.31,126.13 -25.3,191.33 -42.25,-5.86 -54.9,-44.19 -109.38,-36.61 -58.96,68.52 -31.15,225.96 42.03,255.36 80.64,44.88 38.82,121.94 16.75,127.67 -185.66,-40.49 -121.84,-406.95 -117.56,-574.32 76.69,-1.15 159.58,-9.14 193.46,36.58z"/>
   <path class="fil2" d="M647.08 769.55c14.41,-36.2 48.47,54.08 92.44,45.53 -94.39,64.82 -148.09,173.61 -134.69,355.57l0.59 56.83c-78.62,0.96 -155.1,1.35 -218.94,-11.49 -72.02,-110.35 -154.13,-209.4 -126.31,-428.16 81.75,-44.96 156.28,64.41 227.11,-18.28 37.77,37.74 106.28,72.96 134.49,27.24 24.92,12.65 34.26,42.02 58.78,54.67 19.26,-24.33 -37.96,-43.21 -33.48,-81.92z"/>
   <path class="fil1" d="M714.43 1972.47c3.1,-17.13 10.69,5.85 8.17,18.5 -3.13,17.32 -10.71,-5.85 -8.17,-18.5z"/>
   <path class="fil1" d="M697.49 2182.28c11.49,-29 8.37,32.31 8.37,45.56 -11.69,29.19 -8.17,-32.13 -8.37,-45.56z"/>
   <path class="fil1" d="M663.83 2337.2c9.72,-1.37 14.98,1.95 16.73,9.15 -21.2,168.35 -74.72,301.84 -100.81,464.74 -9.35,-161.93 58.19,-319.75 84.08,-473.88z"/>
   <path class="fil2" d="M613.41 660.17c6.8,36.58 29.59,60.12 25.3,91.07 -99.78,95.3 -154.77,-43.23 -168.35,-72.78 -33.28,-140.31 -71.43,-304.78 -25.11,-437.7 55.46,-15.97 110.35,-22.95 151.22,9.33 21.79,122.03 -5.64,287.46 16.94,410.08z"/>
   <path class="fil1" d="M445.26 3084.73c25.3,21.2 80.76,9.55 83.89,54.68 -50.22,-6.42 -87.2,-26.84 -117.55,-54.68 -3.91,-40.49 -21.61,-90.88 -25.11,-154.91 41.05,28.41 29.96,113.26 58.77,154.91z"/>
   <path class="fil2" d="M394.66 286.5c18.69,133.12 -0.79,251.45 42.24,355.36 17.45,161.9 -136.77,109.89 -148.83,37.68 -20.18,-76.05 -84.7,-317.54 14.15,-402.2 30.94,3.13 74.53,-7.77 92.44,9.17z"/>
   <path class="fil5" d="M1236.23 2850.7c-41.99,-17.8 -51.84,-47.78 -57.95,-78.74l-2.93 -12.65c-1.35,-21.9 -18.51,-59.85 -39.84,-76.72 -14.09,-11.12 -36.28,-0.77 -50.2,7.27 8.17,-11.96 8.84,-10.22 23.98,-19.65 -12.4,-3.13 -26.35,-1.81 -39.47,-4.07 -17.92,-3.09 -22.23,-9.42 -40.59,-5.74 -10.61,2.13 -128.81,49.61 -7.91,-1.5 9.73,-4.11 13.22,-1.92 21.69,-4.14 -12.39,-15.02 -19.07,-15.07 -27.31,-42.91 -3.86,-13.02 -15.01,-6.23 -21.34,-2.82 -10.13,5.45 -15.93,-1.43 -28.46,-1.59 7.27,-4.19 14.95,4.87 24.73,0.74 7.56,-3.2 11.89,-9.3 22.64,-5l-3.33 -37.6c5.31,7.19 3.89,45.31 20.17,65.08 16.17,15.8 18.56,25.54 45.29,27.37 28.79,1.96 46.86,-2.94 73.35,19.61 51.64,43.95 34.24,108.48 63.6,132.22 6.63,-40.68 27.83,-28.94 37.83,-53.17 6.06,-14.69 -0.42,-22.16 -3.41,-30.67 -3.46,-9.84 5.12,-28.59 1.23,-32.36 3.65,4.63 0.91,12.93 -0.11,20.13 -1.41,9.98 2.3,12.39 5.39,19.06 5.57,12.03 2.13,29.28 -10.27,40.52 -10.91,9.88 -23.48,14.94 -24,34.42 -0.41,15.29 17.14,23.17 33.64,26.38 30.57,5.92 47.81,-10.55 86.42,4.58 28.2,11.05 56.33,39.86 51.51,62.89 -5.58,-5.12 -11.55,-16.65 -21.62,-25.59 -9.92,-8.8 -21.77,-15.38 -35.18,-19.37 -28.91,-8.59 -45.95,-0.52 -70.29,-0.46 -15.97,0.04 -46.02,32.96 -60.91,53.08l33.64 -58.59z"/>
   <path class="fil5" d="M810.24 2428.41c0.48,-45.6 24.46,-66.12 50.76,-83.56l10.58 -7.52c19.74,-9.58 48.3,-39.9 55.78,-66.05 4.91,-17.26 -13.1,-33.84 -25.83,-43.66 14.17,3 12.81,4.29 27.3,14.69 -1.83,-12.66 -8.35,-25.06 -11.26,-38.05 -3.96,-17.75 0.25,-24.15 -10.15,-39.72 -6,-9 -94.91,-100.23 -1.63,-7.88 7.5,7.43 6.81,11.49 12.08,18.47 9.17,-17.17 6.68,-23.37 29.28,-41.58 10.57,-8.53 0.05,-16.26 -5.51,-20.81 -8.89,-7.3 -4.74,-15.27 -9.36,-26.92 6.65,5.13 1.18,15.68 8.73,23.15 5.83,5.77 13.12,7.46 13.24,19.04l33.5 -17.39c-4.63,7.65 -40.42,20.85 -52.5,43.43 -8.45,20.97 -16.56,26.88 -8.07,52.3 9.15,27.37 20.56,42.22 9.79,75.3 -20.99,64.48 -87.28,72.96 -98.06,109.15 40.14,-9.35 37.35,14.72 63.57,14.74 15.89,0.02 20.33,-8.82 27.06,-14.82 7.79,-6.94 28.39,-6.15 30.39,-11.19 -2.89,5.14 -11.61,5.76 -18.66,7.57 -9.76,2.5 -10.58,6.85 -15.57,12.24 -9.01,9.73 -26.27,13.12 -41.38,5.93 -13.29,-6.33 -22.75,-16.03 -40.96,-9.1 -14.3,5.44 -14.91,24.67 -11.59,41.15 6.16,30.52 27.95,40.2 28.66,81.65 0.52,30.29 -15.41,67.26 -38.54,71.57 2.61,-7.11 11,-17.02 15.43,-29.73 4.36,-12.52 5.93,-25.99 4.52,-39.91 -3.06,-30 -17.01,-42.69 -26.33,-65.17 -6.12,-14.76 -48,-30 -72.27,-36.12l66.98 8.81z"/>
   <path class="fil2" d="M1143.18 760.59c18.85,26.84 31.72,70.46 25.3,127.27 -17.13,148.51 -137.81,271.7 -218.76,373.88 -93.44,-39.52 -221.48,-35.82 -344.3,-34.26l-0.59 -56.83c29.99,-13.62 21.04,-58.19 25.3,-82.13 28.02,-155.5 69.3,-290.19 285.89,-255.34 7.2,22.96 11.11,49.04 8.39,82.14 70.83,-82.33 -69.67,-165.43 -92.25,-236.85 -78.63,-21.22 -141.88,-59.18 -143.04,-164.08 31.72,-7.18 76.28,42.64 126.1,45.56 23.74,-7.6 9.93,-56.06 25.3,-72.99 100.42,10.9 162.3,160.17 235.29,227.9 27.43,25.49 53.7,25.89 67.35,45.74z"/>
   <path class="fil6" d="M2269.74 4458.28c-302.57,348.07 -247.59,759.44 -253.02,780.01l-1.85 6.98c-5.43,20.56 404.35,-159.74 568.88,-590.6 -145.35,-60.59 -184.81,-90.81 -314.01,-196.39z"/>
   <path class="fil1" d="M2275.23 4515.12c-185.26,231.35 -220.31,429.18 -226.31,570.16 -3.38,79.31 14.73,119.08 80.23,74.62 170.69,-115.86 325.26,-304.78 401.96,-483.54 -54.43,-23.83 -93.74,-44.2 -132.2,-68.86 -38.85,-24.9 -75,-52.92 -123.67,-92.38zm-59.69 -44.85c130.28,-70.8 218.02,77.81 383.81,146.93l36.38 15.17 -14.09 36.9c-118.52,310.38 -359.64,495.41 -494.07,572.37 -27.67,15.83 -51.53,27.43 -69.19,34.72 -31.02,12.82 -56.67,11.96 -69.67,0.81 -144.7,-124.74 113.17,-676.18 226.84,-806.9z"/>
   <path class="fil1" d="M3105.79 1268.37c158,-537.11 747.59,-942.53 833.99,-681.7 20.52,61.91 -7.86,175.92 -32.15,273.52 -17.54,70.47 -41.09,124.15 -27.94,136.72 18.98,12.84 236.72,-200.43 380.84,-181.76 71.57,2.48 134.11,46.1 86.28,120.3 -29.78,46.2 -111.33,106.29 -265.31,170.49 115.06,-9.3 269.5,-19.47 312.97,31.9 29.98,35.46 16.14,87.38 -74.56,164.09l-17.49 -20.67c60.57,-51.22 59.67,-97.88 50.74,-108.44 -27.61,-32.65 -178.22,-20.34 -283.06,-11.78 -72.44,5.91 -127.44,10.4 -137.68,-15.93 -8.39,-21.95 16.29,-44.96 88.97,-73.27 168.53,-65.65 252.98,-123.74 279.96,-165.58 21.57,-33.46 -16.59,-36.14 -42.81,-37.05 -77.74,-2.67 -209.04,39.39 -337.74,149.15 -38.35,32.7 -64.44,34.43 -82.22,13.58 -22.74,-26.67 -4.54,-99.79 16.58,-184.65 22.57,-90.7 48.94,-196.67 33.37,-243.66 -4.64,-14 -17.61,-19.58 -43.88,-10.88 -208.09,68.96 -356.72,503.93 -393.02,711.73l-345.85 -36.11z"/>
   <path class="fil7" d="M4267.21 1261.17c39.96,8.19 65.73,47.22 57.55,87.19 -8.19,39.95 -47.23,65.72 -87.19,57.54 -39.95,-8.18 -65.73,-47.22 -57.55,-87.18 8.18,-39.96 47.23,-65.73 87.18,-57.55z"/>
   <path class="fil1" d="M4268.55 1254.55c21.83,4.45 39.78,17.35 51.13,34.55 11.36,17.21 16.17,38.78 11.7,60.59 -4.46,21.83 -17.36,39.78 -34.56,51.13 -17.24,11.34 -38.8,16.15 -60.59,11.69 -21.81,-4.45 -39.76,-17.35 -51.11,-34.55 -11.35,-17.24 -16.15,-38.79 -11.69,-60.59 4.46,-21.82 17.36,-39.77 34.55,-51.12 17.2,-11.36 38.78,-16.16 60.58,-11.7zm-72.18 115.94c9.48,14.33 24.42,25.08 42.56,28.78 18.15,3.72 36.1,-0.28 50.43,-9.72 14.33,-9.48 25.08,-24.41 28.79,-42.54 21.88,-106.87 -186.89,-75.26 -121.78,23.48z"/>
   <path class="fil6" d="M3419.8 4569.35c-80.48,454.12 178.23,778.65 184.15,799.07l2 6.93c5.92,20.42 264.63,-344.95 184.15,-799.07 -155.82,22.79 -205.21,17.17 -370.3,-6.93z"/>
   <path class="fil1" d="M3453.74 4615.26c-39.9,293.69 31.78,481.37 99.13,605.37 37.89,69.76 73.87,94.56 107.18,22.74 86.8,-187.15 122.2,-428.66 96.05,-621.42 -58.93,7.56 -103.13,10.3 -148.8,8.93 -46.13,-1.37 -91.54,-6.81 -153.57,-15.62zm-74.25 -7.78c75.32,-127.72 226.99,-45.39 404.72,-71.37l39 -5.71 6.89 38.89c57.98,327.14 -53.66,609.83 -129.37,744.97 -15.59,27.81 -30.09,50.02 -41.48,65.36 -20,26.95 -42.45,39.41 -59.33,36.53 -188.25,-32.56 -250.69,-638.11 -220.43,-808.68z"/>
   <path class="fil6" d="M3096.45 4735.81c3050.13,0 2096.75,-3489.63 0,-3489.63 -2096.75,0 -3050.13,3489.63 0,3489.63z"/>
   <path class="fil1" d="M4254.94 1456.33c29.88,-9.59 131.4,-40.91 106.72,-131.88 29.17,-7.17 29.32,125.23 -106.72,131.88z"/>
   <path class="fil1" d="M4139.97 1368.54c0.74,-31.38 2.02,-137.6 96.26,-139.7 -1.38,-30 -128.41,7.35 -96.26,139.7z"/>
   <path class="fil8" d="M4208.82 1323.95c6.8,0 19.23,-7.82 19.23,-14.8 0,-6.98 -5.52,-12.64 -12.31,-12.64 -15.41,0 -16.1,27.44 -6.91,27.44z"/>
   <path class="fil9" d="M2056.14 2327.8c589.82,-180.41 1436.29,-216.43 2072.24,10.39l-738.13 -928.46c-211.18,-46.62 -422.35,-48.37 -633.52,0l-700.59 918.07z"/>
   <path class="fil10" d="M2991.74 2142.77l0 -708.93c49.03,-4.54 95.7,-5.27 133.97,0l0 708.93 -133.97 0z"/>
   <path class="fil10" d="M2960.72 2148.58l-133.98 6.82 0 -203.92c-87.09,0.65 -222.29,46.72 -296.31,81.33l-135.46 168.26c-48.85,9.3 -140.74,22.88 -200.89,50.89l501.66 -629.12 -63.71 0 117.24 -150.73c53.37,-15.19 139.03,-37.01 210.34,-35.87l1.11 712.33zm-133.98 -346.54l0 -140.46 -176.92 213.91c62.89,-53.21 130.95,-62.03 176.92,-73.44z"/>
   <path class="fil10" d="M3156.73 2143.02l0 -708.61c78.72,3.89 154.22,17.34 213.68,45.26l115.01 143.19 -194.71 0 0 113.58 284.69 0 106.14 133.97 -390.83 0 0 146.07c185.74,-4.67 341.44,-4.83 530.18,31.04l151.51 198.95c-138.42,-37.51 -580.08,-113.7 -815.67,-103.45z"/>
   <path class="fil11" d="M4809.15 3368.98c0,-866.56 -1037.3,-1110.57 -1730.9,-1110.57 -694.57,0 -1749.79,237.43 -1749.79,1110.57 0,871.21 1055.04,1117.88 1749.79,1117.88 693.68,0 1730.9,-252.53 1730.9,-1117.88z"/>
   <g style="clip-path:url(#id0)">
    <g>
     <path id="_1" class="fil12" d="M4359.61 4131.15c-797.17,326.94 -2873.83,430.65 -3004.06,-763.52 0,0.45 0,0.9 0,1.35 0,850.09 1038.71,1090.78 1722.68,1090.78 394.3,0 900.25,-82.12 1258.72,-313.63 7.62,-4.93 15.17,-9.91 22.66,-14.97z"/>
    </g>
   </g>
   <path class="fil0" d="M4809.15 3368.98c0,-866.56 -1037.3,-1110.57 -1730.9,-1110.57 -694.57,0 -1749.79,237.43 -1749.79,1110.57 0,871.21 1055.04,1117.88 1749.79,1117.88 693.68,0 1730.9,-252.53 1730.9,-1117.88z"/>
   <path class="fil1" d="M4782.04 3368.98c0,-357.56 -182.3,-606.17 -443.71,-773.89 -358.5,-230.02 -865.3,-309.57 -1260.09,-309.57 -396.46,0 -911.15,77.85 -1275.02,308.78 -263.56,167.28 -447.67,415.78 -447.67,774.69 0,850.09 1038.71,1090.78 1722.68,1090.78 394.3,0 900.25,-82.12 1258.72,-313.63 262.16,-169.31 445.08,-419.41 445.08,-777.14zm-414.49 -819.41c276.13,177.16 468.69,440.29 468.69,819.41 0,379.2 -193.2,643.85 -470.07,822.66 -368.39,237.93 -885.6,322.32 -1287.94,322.32 -705.49,0 -1776.89,-252.66 -1776.89,-1144.98 0,-380.67 194.46,-643.73 472.86,-820.42 373.84,-237.26 899.7,-317.25 1304.02,-317.25 402.76,0 920.75,81.78 1289.31,318.26z"/>
   <path class="fil9 str0" d="M2296.57 3498.91c82.39,-92.33 137.23,-199.86 137.23,-431.02 0,-231.16 -137.9,-514.48 -308,-514.48 -170.09,0 -308,272.53 -308,514.48 0,241.94 56.23,362.54 155.82,447.77 60.08,-34.87 246.91,-40.73 322.94,-16.75z"/>
   <path class="fil13" d="M2055.28 3183.9c40.01,0 72.45,-65.64 72.45,-146.6 0,-80.96 -32.44,-146.6 -72.45,-146.6 -40.02,0 -72.45,65.64 -72.45,146.6 0,80.96 32.44,146.6 72.45,146.6z"/>
   <path class="fil13" d="M2168.45 2909.29c10.36,0 18.77,-17 18.77,-37.96 0,-20.97 -8.41,-37.97 -18.77,-37.97 -10.36,0 -18.76,17 -18.76,37.97 0,20.96 8.4,37.96 18.76,37.96z"/>
   <path class="fil9 str0" d="M4104.18 3510.54c96.46,-86.9 150.97,-202.63 150.97,-442.65 0,-240.02 -137.89,-514.48 -308,-514.48 -170.1,0 -308,281.92 -308,514.48 0,232.56 52.2,335.97 136.76,427.69 77.33,-26.61 261.26,-26 328.26,14.96z"/>
   <path class="fil13" d="M3870.05 3236.49c40,0 72.45,-65.64 72.45,-146.59 0,-80.96 -32.45,-146.6 -72.45,-146.6 -40.02,0 -72.46,65.64 -72.46,146.6 0,80.96 32.44,146.59 72.46,146.59z"/>
   <path class="fil13" d="M3971.14 2906.98c9.09,0 16.48,-14.93 16.48,-33.34 0,-18.41 -7.38,-33.35 -16.48,-33.35 -9.1,0 -16.48,14.93 -16.48,33.35 0,18.41 7.37,33.34 16.48,33.34z"/>
   <path class="fil1" d="M4877.49 3845.4c102.36,-214.13 151.51,-441.45 142.04,-683.63 -70.81,-1811.88 -2764.23,-2678.26 -3661.74,-708.96 -1073.72,2355.86 2771.68,2957.45 3519.7,1392.6zm34 15.75c-241.67,505.57 -813.16,881.44 -1815.04,881.44 -1001.88,0 -1573.38,-375.87 -1815.05,-881.44 -103.37,-216.23 -146.33,-456.11 -136.78,-700.39 9.54,-244.1 71.53,-492.67 178.07,-726.46 298.71,-655.42 947.81,-1194.88 1773.75,-1194.88 825.93,0 1475.03,539.47 1773.74,1194.88 106.54,233.78 168.54,482.35 178.07,726.46 9.55,244.28 -33.41,484.16 -136.78,700.39z"/>
   <path class="fil1" d="M2466.82 3564.89c-14.13,9.83 -413.41,-207.12 -584.39,66.15 17.02,-165.62 468.38,-264.99 584.39,-66.15z"/>
   <path class="fil1" d="M3664.28 3584.66c14.13,9.83 413.41,-207.12 584.39,66.15 -17.02,-165.63 -468.38,-264.99 -584.39,-66.15z"/>
   <path class="fil0 str1" d="M2928.11 3268.98c67.57,76.7 246.46,70.44 323.71,6.66"/>
   <path class="fil13" style="mask:url(#id1)" d="M2710.76 3033.97c-254.87,-40.25 -478.06,-129.43 -700.49,-244.94 219.37,247.26 776.28,875.77 200.65,585.18 0,0 -596.78,-311.24 -596.78,-311.24 107.91,36.36 629.71,253 761.14,298.83 -102.77,-176.58 -656.53,-646.63 -492.11,-711.49 18.28,-7.2 690.06,329.94 827.59,383.66z"/>
   <path class="fil13" style="mask:url(#id3)" d="M4520.7 3033.97c-254.87,-40.25 -478.06,-129.43 -700.48,-244.94 219.37,247.26 776.28,875.77 200.65,585.18 0,0 -596.78,-311.24 -596.78,-311.24 107.9,36.36 629.7,253 761.14,298.83 -102.77,-176.58 -656.53,-646.63 -492.11,-711.49 18.28,-7.2 690.06,329.94 827.59,383.66z"/>
   <path class="fil14" d="M4236.89 1886.85c-84.35,-18.81 -160.19,29.57 -160.19,120.95 0.01,106.04 98.01,205.37 203.74,205.38 92.02,0 139.72,-78.31 119.28,-164.5 -18.13,-76.52 -87.22,-144.95 -162.83,-161.82z"/>
   <path class="fil14" d="M4001.15 1804.49c-38.02,-8.49 -72.23,13.33 -72.23,54.53 0.01,47.82 44.2,92.61 91.87,92.61 41.49,0 63,-35.31 53.79,-74.17 -8.18,-34.51 -39.33,-65.37 -73.43,-72.97z"/>
   <path class="fil1" d="M4451.66 2377.52c6.48,-9.12 19.15,-11.25 28.27,-4.76 9.12,6.48 11.25,19.15 4.76,28.27l-30.1 42.37c-6.48,9.12 -19.15,11.24 -28.27,4.76 -9.12,-6.48 -11.24,-19.15 -4.76,-28.27l30.1 -42.37z"/>
   <path class="fil1" d="M4536.42 2404.91c6.62,-9.02 19.32,-10.98 28.35,-4.36 9.03,6.62 10.98,19.32 4.36,28.35l-48.1 65.72c-6.62,9.03 -19.32,10.98 -28.35,4.36 -9.02,-6.62 -10.98,-19.32 -4.36,-28.35l48.1 -65.72z"/>
   <path class="fil1" d="M4625.79 2422.04c6.62,-9.03 19.32,-10.99 28.35,-4.37 9.02,6.62 10.98,19.32 4.36,28.35l-80.87 110.47c-6.62,9.02 -19.32,10.98 -28.35,4.36 -9.02,-6.62 -10.98,-19.32 -4.36,-28.35l80.87 -110.47z"/>
   <path class="fil1" d="M4742.64 2428.19c7.58,-8.24 20.42,-8.77 28.66,-1.19 8.24,7.58 8.77,20.42 1.19,28.66l-145.98 158.52c-7.58,8.24 -20.42,8.77 -28.66,1.19 -8.24,-7.58 -8.78,-20.42 -1.19,-28.66l145.98 -158.52z"/>
   <path class="fil1" d="M4777.54 2542.57c8.2,-7.63 21.03,-7.16 28.66,1.04 7.63,8.2 7.16,21.04 -1.04,28.66l-121.51 112.91c-8.2,7.63 -21.03,7.16 -28.66,-1.04 -7.63,-8.2 -7.16,-21.04 1.04,-28.66l121.51 -112.91z"/>
   <path class="fil1" d="M4784.04 2657.23c8.68,-7.06 21.45,-5.74 28.51,2.94 7.06,8.68 5.74,21.45 -2.94,28.51l-81 65.8c-8.68,7.06 -21.45,5.74 -28.51,-2.94 -7.06,-8.68 -5.74,-21.44 2.94,-28.5l81 -65.8z"/>
   <path class="fil1" d="M4359.58 2352.65c5.87,-9.51 18.36,-12.46 27.87,-6.59 9.51,5.87 12.46,18.36 6.59,27.87l-15.76 25.39c-5.87,9.51 -18.36,12.46 -27.87,6.59 -9.51,-5.87 -12.46,-18.36 -6.59,-27.87l15.76 -25.39z"/>
   <path class="fil1" d="M4816.78 2763.67c9.38,-6.14 21.97,-3.5 28.11,5.88 6.14,9.38 3.5,21.97 -5.88,28.11l-69 45.3c-9.38,6.14 -21.97,3.5 -28.11,-5.88 -6.14,-9.38 -3.5,-21.97 5.88,-28.11l69 -45.3z"/>
   <path class="fil1" d="M4841.06 2864.63c10.61,-3.55 22.09,2.17 25.64,12.78 3.55,10.61 -2.17,22.09 -12.78,25.64l-57.31 19.25c-10.61,3.55 -22.09,-2.17 -25.64,-12.78 -3.55,-10.61 2.17,-22.09 12.78,-25.64l57.31 -19.25z"/>
   <path class="fil1" d="M4836.04 2957.7c10.61,-3.55 22.09,2.17 25.64,12.78 3.55,10.61 -2.17,22.09 -12.78,25.64l-35.66 11.98c-10.61,3.55 -22.09,-2.17 -25.64,-12.78 -3.55,-10.61 2.17,-22.09 12.78,-25.64l35.66 -11.98z"/>
   <path class="fil9" d="M4303.11 2317.82c-16.34,0 -29.59,12.94 -29.59,28.91 0,15.97 13.25,28.91 29.59,28.91 16.34,0 29.59,-12.94 29.59,-28.91 0,-15.97 -13.25,-28.91 -29.59,-28.91z"/>
   <path class="fil9" d="M4236.52 2286.82c-14.65,0 -26.53,11.6 -26.53,25.92 0,14.31 11.88,25.93 26.53,25.93 14.64,0 26.53,-11.61 26.53,-25.93 0,-14.32 -11.89,-25.92 -26.53,-25.92z"/>
   <path class="fil9" d="M4171.07 2265.02c-12.52,0 -22.67,9.92 -22.67,22.15 0,12.24 10.15,22.15 22.67,22.15 12.52,0 22.67,-9.92 22.67,-22.15 0,-12.24 -10.15,-22.15 -22.67,-22.15z"/>
   <path class="fil9" d="M4834.48 3037.09c-14.89,2.36 -24.93,17.06 -22.43,32.83 2.51,15.77 16.6,26.64 31.48,24.28 14.89,-2.36 24.93,-17.05 22.43,-32.83 -2.5,-15.77 -16.6,-26.64 -31.48,-24.28z"/>
   <path class="fil9" d="M4850.46 3137.34c-11.12,1.77 -18.63,12.75 -16.76,24.54 1.87,11.79 12.41,19.92 23.54,18.16 11.12,-1.76 18.64,-12.75 16.76,-24.54 -1.87,-11.8 -12.41,-19.93 -23.54,-18.16z"/>
   <path class="fil9" d="M4860.43 3234.81c-6.09,0.96 -10.2,6.98 -9.18,13.43 1.03,6.45 6.79,10.9 12.88,9.94 6.09,-0.96 10.2,-6.98 9.17,-13.43 -1.02,-6.45 -6.79,-10.9 -12.87,-9.93z"/>
   <path class="fil14" d="M1951.01 1886.85c84.35,-18.81 160.19,29.57 160.19,120.95 -0.01,106.04 -98.01,205.37 -203.74,205.38 -92.02,0 -139.72,-78.31 -119.28,-164.5 18.14,-76.52 87.22,-144.95 162.84,-161.82z"/>
   <path class="fil14" d="M2186.75 1804.49c38.02,-8.49 72.23,13.33 72.23,54.53 -0.01,47.82 -44.2,92.61 -91.87,92.61 -41.49,0 -63.01,-35.31 -53.79,-74.17 8.18,-34.51 39.33,-65.37 73.43,-72.97z"/>
   <path class="fil5" d="M4338.72 2779.91c11.65,44.09 39.94,58.1 69.72,68.55l12.11 4.69c21.49,4.44 56.62,26.82 70.29,50.33 9,15.53 -4.39,36.02 -14.33,48.66 13,-6.39 11.37,-7.3 22.85,-20.94 1.34,12.72 -1.94,26.34 -1.57,39.65 0.52,18.18 6.17,23.35 -0.09,40.99 -3.61,10.2 -67.4,120.46 0.36,8.04 5.45,-9.05 3.78,-12.81 7.18,-20.88 13.11,14.4 12.21,21.02 38.59,33.13 12.34,5.67 4.04,15.74 -0.24,21.53 -6.83,9.25 -0.85,15.96 -2.46,28.39 5.19,-6.6 -2.7,-15.48 2.78,-24.58 4.24,-7.03 10.89,-10.45 8.17,-21.7l36.74 8.63c-6.37,-6.28 -44.3,-10.29 -61.56,-29.21 -13.34,-18.25 -22.65,-21.99 -20.66,-48.72 2.15,-28.78 9.56,-45.97 -8.99,-75.4 -36.17,-57.35 -102.52,-49.3 -121.85,-81.74 41.2,-0.78 32.6,-23.43 58,-29.9 15.4,-3.91 21.87,3.56 29.87,7.73 9.25,4.81 29.03,-1.01 32.21,3.38 -4.06,-4.28 -12.67,-2.73 -19.94,-2.76 -10.08,-0.02 -11.94,-4.04 -18.09,-8.04 -11.12,-7.22 -28.69,-6.27 -41.57,4.41 -11.33,9.4 -18.12,21.13 -37.48,18.87 -15.19,-1.77 -20.5,-20.26 -21.33,-37.05 -1.52,-31.1 17.23,-45.83 7.74,-86.19 -6.94,-29.49 -31.45,-61.42 -54.93,-59.92 4.28,6.25 14.84,13.8 22.26,25.04 7.3,11.06 12.13,23.73 14.18,37.57 4.4,29.84 -6.01,45.56 -9.52,69.64 -2.31,15.81 -39.17,40.87 -61.2,52.75l62.77 -24.98z"/>
   <polygon class="fil15" points="81.99,708 6216.8,708 6216.8,127.15 81.99,127.15 "/>
   <path class="fil2" d="M815.24 477.79c3.31,22 -15.37,19.87 -8.36,45.76 -28.02,-9.36 -57.81,-16.35 -84.27,-27.46 0,-15.2 0,-30.34 0,-45.54 44.37,-5.44 61.5,18.48 92.63,27.24zm327.94 282.8c18.86,26.84 31.72,70.46 25.3,127.27 -17.13,148.51 -137.8,271.7 -218.75,373.88 -93.44,-39.52 -221.48,-35.82 -344.29,-34.25l-0.59 -56.84c29.99,-13.63 21.04,-58.19 25.31,-82.13 28.02,-155.5 69.3,-290.18 285.89,-255.34 7.2,22.96 11.11,49.04 8.39,82.13 70.83,-82.33 -69.67,-165.43 -92.25,-236.85 -78.63,-21.22 -141.88,-59.18 -143.04,-164.08 31.73,-7.18 76.28,42.64 126.11,45.56 23.74,-7.6 9.92,-56.06 25.3,-72.98 100.41,10.9 162.3,160.16 235.29,227.9 27.43,25.49 53.7,25.89 67.35,45.74z"/>
   <path class="fil9" d="M799.3 441.41c7.7,4.07 15.43,8.15 23.24,10.34l16.88 4.75 0.48 3.18 3.5 0.38c78.54,8.52 131.88,81.76 182.55,151.37 23,31.6 45.44,62.4 68.3,83.63 20.01,18.6 46.83,37.53 65.33,56.41l-48 -13.16c-10.94,-5.41 -23.22,-11.82 -35.74,-23.46 -72.99,-67.74 -134.87,-217 -235.29,-227.9 -15.38,16.93 -1.57,65.39 -25.3,72.98 -49.83,-2.91 -94.38,-52.74 -126.11,-45.56 1.16,104.9 64.41,142.86 143.04,164.08 22.57,71.43 163.08,154.52 92.25,236.85 2.73,-33.09 -1.19,-59.17 -8.39,-82.13 -10.1,-1.62 -19.83,-2.89 -29.17,-3.78 -11.37,-9.54 -12.5,-7.8 -23.11,-18.13 10.16,0.1 11.81,-10.04 22.85,-9.04 -24.51,-32.58 -45.9,-74.1 -62.96,-110.68 -94.45,-28.48 -160.39,-73.85 -161.52,-176.96 -1.04,-94.4 60.06,-113.83 137.17,-73.19zm15.93 36.38c3.31,22 -15.37,19.87 -8.36,45.76 -28.02,-9.36 -57.81,-16.35 -84.27,-27.46l0 -45.54c44.37,-5.44 61.5,18.48 92.63,27.24z"/>
   <path class="fil2" d="M5455.55 477.79c-3.32,22 15.37,19.87 8.36,45.76 28.02,-9.36 57.81,-16.35 84.27,-27.46 0,-15.2 0,-30.34 0,-45.54 -44.37,-5.44 -61.5,18.48 -92.63,27.24zm-327.94 282.8c-18.86,26.84 -31.73,70.46 -25.3,127.27 17.13,148.51 137.8,271.7 218.75,373.88 93.44,-39.52 221.48,-35.82 344.29,-34.25l0.59 -56.84c-29.99,-13.63 -21.04,-58.19 -25.3,-82.13 -28.02,-155.5 -69.3,-290.18 -285.89,-255.34 -7.2,22.96 -11.11,49.04 -8.39,82.13 -70.83,-82.33 69.67,-165.43 92.25,-236.85 78.63,-21.22 141.88,-59.18 143.04,-164.08 -31.72,-7.18 -76.28,42.64 -126.1,45.56 -23.74,-7.6 -9.93,-56.06 -25.3,-72.98 -100.41,10.9 -162.3,160.16 -235.29,227.9 -27.43,25.49 -53.7,25.89 -67.34,45.74z"/>
   <path class="fil9" d="M5471.48 441.41c-7.7,4.07 -15.43,8.15 -23.24,10.34l-16.88 4.75 -0.48 3.18 -3.5 0.38c-78.54,8.52 -131.88,81.76 -182.55,151.37 -23,31.6 -45.44,62.4 -68.3,83.63 -20.01,18.6 -46.83,37.53 -65.33,56.41l48 -13.16c10.94,-5.41 23.22,-11.82 35.74,-23.46 72.99,-67.74 134.88,-217 235.29,-227.9 15.38,16.93 1.57,65.39 25.3,72.98 49.83,-2.91 94.38,-52.74 126.1,-45.56 -1.16,104.9 -64.41,142.86 -143.04,164.08 -22.57,71.43 -163.08,154.52 -92.25,236.85 -2.73,-33.09 1.19,-59.17 8.39,-82.13 10.1,-1.62 19.83,-2.89 29.17,-3.78 11.37,-9.54 12.5,-7.8 23.11,-18.13 -10.16,0.1 -11.81,-10.04 -22.85,-9.04 24.5,-32.58 45.9,-74.1 62.96,-110.68 94.45,-28.48 160.39,-73.85 161.52,-176.96 1.04,-94.4 -60.06,-113.83 -137.17,-73.19zm-15.93 36.38c-3.32,22 15.37,19.87 8.36,45.76 28.02,-9.36 57.81,-16.35 84.27,-27.46l0 -45.54c-44.37,-5.44 -61.5,18.48 -92.63,27.24z"/>
   <g>
    <rect class="fil13 str2" x="2578.04" y="3664.65" width="957.06" height="368.69" rx="105.74" ry="105.74"/>
    <g id="_1899384998000">
     <line class="fil0 str2" x1="2727.63" y1="3664.65" x2="2727.63" y2= "4033.33" />
     <line class="fil0 str2" x1="2895.95" y1="3664.65" x2="2895.95" y2= "4033.33" />
     <line class="fil0 str2" x1="3064.26" y1="3664.65" x2="3064.26" y2= "4033.33" />
     <line class="fil0 str2" x1="3232.58" y1="3664.65" x2="3232.58" y2= "4033.33" />
     <line class="fil0 str2" x1="3400.9" y1="3664.65" x2="3400.9" y2= "4033.33" />
    </g>
    <line class="fil0 str2" x1="2578.04" y1="3848.99" x2="3535.1" y2= "3848.99" />
    <path class="fil13 str2" d="M2727.63 3848.99l0 -184.34 -43.86 0c-58.16,0 -105.74,47.58 -105.74,105.74l0 78.6 149.6 0z"/>
    <polygon class="fil13 str2" points="2895.95,3848.99 2727.63,3848.99 2727.63,4033.33 2895.95,4033.33 "/>
    <path class="fil13 str2" d="M2727.63 4033.33l0 -184.35 -149.6 0 0 78.61c0,58.16 47.58,105.74 105.74,105.74l43.86 0z"/>
    <polygon class="fil13 str2" points="2727.63,3848.99 2895.95,3848.99 2895.95,3664.65 2727.63,3664.65 "/>
    <polygon class="fil13 str2" points="2895.95,3664.65 2895.95,3848.99 3064.26,3848.99 3064.26,3664.65 "/>
    <polygon class="fil13 str2" points="3064.26,3848.99 2895.95,3848.99 2895.95,4033.33 3064.26,4033.33 "/>
    <polygon class="fil13 str2" points="3064.26,3848.99 3064.26,4033.33 3232.58,4033.33 3232.58,3848.99 "/>
    <polygon class="fil13 str2" points="3064.26,3848.99 3232.58,3848.99 3232.58,3664.65 3064.26,3664.65 "/>
    <polygon class="fil13 str2" points="3232.58,3664.65 3232.58,3848.99 3400.9,3848.99 3400.9,3664.65 "/>
    <polygon class="fil13 str2" points="3400.9,3848.99 3232.58,3848.99 3232.58,4033.33 3400.9,4033.33 "/>
    <path class="fil13 str2" d="M3400.9 3664.65l0 184.34 134.2 0 0 -78.6c0,-58.16 -47.58,-105.74 -105.74,-105.74l-28.46 0z"/>
    <path class="fil13 str2" d="M3535.1 3848.99l-134.2 0 0 184.35 28.46 0c58.15,0 105.74,-47.58 105.74,-105.74l0 -78.61z"/>
   </g>
   <path class="fil16 str3" d="M2216.77 2305.29c216.64,0 412.81,87.83 554.79,229.81 141.98,141.98 229.81,338.13 229.81,554.79 0,216.64 -87.83,412.8 -229.81,554.79 -141.98,141.98 -338.15,229.81 -554.79,229.81 -216.65,0 -412.81,-87.83 -554.79,-229.81 -141.98,-141.98 -229.81,-338.15 -229.81,-554.79 0,-216.66 87.83,-412.81 229.81,-554.79 141.98,-141.98 338.13,-229.81 554.79,-229.81zm497.31 287.29c-127.26,-127.26 -303.1,-205.98 -497.31,-205.98 -194.22,0 -370.05,78.72 -497.31,205.98 -127.26,127.26 -205.98,303.1 -205.98,497.31 0,194.22 78.72,370.05 205.98,497.31 127.26,127.26 303.1,205.98 497.31,205.98 194.22,0 370.05,-78.72 497.31,-205.98 127.26,-127.26 205.98,-303.09 205.98,-497.31 0,-194.22 -78.72,-370.05 -205.98,-497.31z"/>
   <path class="fil16 str3" d="M3972.4 2305.29c216.64,0 412.81,87.83 554.79,229.81 141.98,141.98 229.81,338.13 229.81,554.79 0,216.64 -87.83,412.8 -229.81,554.79 -141.98,141.98 -338.15,229.81 -554.79,229.81 -216.65,0 -412.81,-87.83 -554.79,-229.81 -141.98,-141.98 -229.81,-338.15 -229.81,-554.79 0,-216.66 87.83,-412.81 229.81,-554.79 141.98,-141.98 338.13,-229.81 554.79,-229.81zm497.31 287.29c-127.26,-127.26 -303.09,-205.98 -497.31,-205.98 -194.22,0 -370.05,78.72 -497.31,205.98 -127.26,127.26 -205.98,303.1 -205.98,497.31 0,194.22 78.72,370.05 205.98,497.31 127.26,127.26 303.1,205.98 497.31,205.98 194.22,0 370.05,-78.72 497.31,-205.98 127.26,-127.26 205.98,-303.09 205.98,-497.31 0,-194.22 -78.72,-370.05 -205.98,-497.31z"/>
   <g>
    <path class="fil17" d="M4441.9 4038.04c33.17,-10.62 55.44,-52.2 53.31,-92.73 -0.04,-0.66 -0.07,-1.31 -0.12,-1.95 -3.51,-52 -39.92,-99.3 -60.35,-150.96 -18.86,50.11 -64.11,106.61 -65.35,171.2 -0.02,0.84 -0.03,1.67 -0.03,2.51 0,51.64 34.74,84.03 72.54,71.93z"/>
    <path class="fil1" d="M4440.84 4034.74c15.46,-4.95 28.49,-17.1 37.51,-32.8 9.4,-16.35 14.44,-36.52 13.4,-56.43l-0.12 -1.93c-2.26,-33.59 -18.74,-65.53 -35.48,-98.01 -7.46,-14.48 -15.03,-38.28 -21.41,-53.18 -22.46,53.28 -60.73,110.77 -61.89,171.25l-0.03 2.46c0.01,10.78 1.57,20.67 4.36,29.39 8.91,27.81 33.13,49.02 63.66,39.24zm43.5 -29.35c-152.57,187.56 -144.23,-117.8 -51.99,-235.85 6.91,17.49 21.29,56.04 29.96,72.86 17.08,33.13 33.88,65.72 36.24,100.72l0.12 1.98c1.11,21.26 -4.28,42.8 -14.33,60.29z"/>
   </g>
   <g>
    <path class="fil17" d="M4502.56 3816.69c12.94,-4.15 21.63,-20.37 20.8,-36.19 -0.01,-0.26 -0.03,-0.51 -0.05,-0.76 -1.37,-20.3 -15.58,-38.75 -23.55,-58.91 -7.36,19.56 -25.02,41.61 -25.5,66.81 -0.01,0.33 -0.01,0.65 -0.01,0.98 0,20.15 13.56,32.8 28.31,28.07z"/>
    <path class="fil1" d="M4502.14 3815.41c6.04,-1.93 11.12,-6.67 14.64,-12.8 3.67,-6.38 5.64,-14.25 5.23,-22.02l-0.05 -0.75c-0.88,-13.11 -7.31,-25.57 -13.84,-38.25 -2.91,-5.65 -5.87,-14.94 -8.35,-20.75 -8.76,20.8 -23.7,43.23 -24.15,66.83l-0.01 0.96c0,4.21 0.61,8.07 1.7,11.47 3.48,10.85 12.93,19.13 24.84,15.31zm16.98 -11.45c-59.54,73.19 -56.28,-45.97 -20.29,-92.04 2.7,6.82 8.31,21.87 11.69,28.43 6.67,12.93 13.22,25.65 14.14,39.3l0.05 0.77c0.44,8.3 -1.67,16.7 -5.59,23.53z"/>
   </g>
  </g>
 </g>
</svg>
