<?xml version="1.0" encoding="UTF-8"?>
<!DOCTYPE svg PUBLIC "-//W3C//DTD SVG 1.1//EN" "http://www.w3.org/Graphics/SVG/1.1/DTD/svg11.dtd">
<!-- Creator: CorelDRAW 2021 (64-Bit) -->
<svg xmlns="http://www.w3.org/2000/svg" xml:space="preserve" width="2.75591in" height="2.75591in" version="1.1" style="shape-rendering:geometricPrecision; text-rendering:geometricPrecision; image-rendering:optimizeQuality; fill-rule:evenodd; clip-rule:evenodd"
viewBox="0 0 2755.91 2755.91"
 xmlns:xlink="http://www.w3.org/1999/xlink"
 xmlns:xodm="http://www.corel.com/coreldraw/odm/2003">
 <defs>
  <style type="text/css">
   <![CDATA[
    .fil0 {fill:none}
    .fil1 {fill:#595959}
   ]]>
  </style>
 </defs>
 <g id="Layer_x0020_1">
  <metadata id="CorelCorpID_0Corel-Layer"/>
  <rect class="fil0" x="-2.05" y="2.05" width="2755.91" height="2755.91"/>
  <path class="fil1" d="M651.11 1321.16l0 -13.72 310.99 0c0,72.09 8.05,137.61 22.87,201.22l-195.55 193.19c-75.85,-108.94 -138.3,-241.74 -138.3,-380.69zm1164.23 242.1c40.7,0 73.7,33 73.7,73.7 0,40.7 -33,73.7 -73.7,73.7 -40.7,0 -73.7,-33 -73.7,-73.7 0,-40.7 33,-73.7 73.7,-73.7zm-218.85 0c40.7,0 73.7,33 73.7,73.7 0,40.7 -33,73.7 -73.7,73.7 -40.7,0 -73.7,-33 -73.7,-73.7 0,-40.7 33,-73.7 73.7,-73.7zm-71.86 599.39c0,-158.32 19.15,-175.15 -68.91,-164.95 -57.43,6.65 -149.5,3.96 -206.62,-7.7 -40.93,-8.36 -77.3,-15.93 -112.64,-29.14 -91.77,-34.29 -115.58,-51.51 -188.07,-100.05l1018.72 -1021c25.52,36.7 34.2,43.99 56.03,88.03 7.41,14.95 16.09,30.64 22.9,45.7 106.85,236.46 74.94,498.96 -67.71,714.41 -25.86,39.04 -115.24,136.41 -159.1,165.61 -13.19,8.78 -14.99,8.85 -25.98,19.76l-134.88 144.09c-11.33,11.25 -11.3,14.12 -20.57,25.17l-89.19 93.74c-10.48,10.42 -14.44,19.35 -23.97,26.33zm-1243.95 -932.96c0,101.88 -2.08,138.85 18.63,242.05 48.28,240.55 157.39,363.18 164.3,389.07 -31.04,-14.89 -68.6,-1.88 -68.6,32.01 0,37.15 33.12,37.18 66.69,43.07 98.19,17.24 128.84,28.22 134.54,-47.64 3.73,-49.63 30.06,-123.48 -27.44,-123.48 -32.35,0 -35.11,24.33 -41.16,50.31 -0.71,-0.81 -1.87,-3.12 -2.17,-2.41 -0.3,0.71 -1.74,-1.91 -2.15,-2.43l-62.74 -106.46c-46.48,-92.94 -69.76,-160.4 -90.38,-266.35l-11.82 -79.65c-12.68,-176.51 18.9,-377.74 106.13,-529.66l112.33 -166.65c8.74,-9.24 7.17,-9.33 13.97,-18.04 5.54,-7.09 86.5,-69.56 45,-102.72 -39.48,-31.55 -63.47,15.63 -95.58,47.57 -68.32,67.95 -160.75,221.44 -193.76,318.45 -6.27,18.44 -10.72,27.46 -17.2,46.83 -5.73,17.11 -9.75,31.73 -14.74,49.28 -16.83,59.13 -33.83,154.69 -33.83,226.85zm1856.78 -612.83c0,79.55 -14.58,141.78 41.16,141.78 25.13,0 34.67,-18.15 36.59,-41.16l8.27 10.02c36.11,50.05 45.67,75.63 73.16,123.5 5.99,10.43 9.43,20.76 14.61,31.12 9.18,18.33 17.33,40.06 25.62,61.27 67.62,173.03 73.02,381.09 27.43,563.45 -22.06,88.26 -43.46,137.09 -83.6,213.67l-94.18 143.63c-26.47,34.94 -76.5,77.57 -76.5,101.87 0,31.89 38.29,71.81 107,-21.05 52.52,-70.98 47.32,-51.01 111.6,-153.66l45.18 -87.45c16.43,-38.66 22.21,-44.69 38.64,-93.99 79.31,-238.05 78.84,-456.17 -4.5,-691.8 -38.94,-110.09 -83.18,-173.88 -146.99,-269.18 17.68,0 64.03,5.81 64.03,-36.59 0,-9.51 -8.79,-36.59 -36.59,-36.59 -88.04,0 -150.92,-16.84 -150.92,41.16zm-759.82 946.4c40.7,0 73.7,33 73.7,73.7 0,40.7 -33,73.7 -73.7,73.7 -40.7,0 -73.7,-33 -73.7,-73.7 0,-40.7 33,-73.7 73.7,-73.7zm-525.29 292.98c0,21.03 -0.71,25.53 13.59,36.72 133.65,104.58 299.45,182.8 475.76,182.8l109.76 0 0 182.93c0,31.5 37.96,67.18 96.9,-8.28 25.51,-32.67 28.05,-29.47 50.66,-54.53l100.55 -109.83c26.63,-26.32 130.4,-147 152.45,-163.11 26.3,-19.22 89.66,-71.78 112.87,-97.5 124.54,-137.98 218.3,-331.45 218.3,-518 0,-205.13 -26.48,-298.87 -124.95,-469.59 -7.82,-13.56 -9.32,-13.47 -16.89,-24.27l-38.22 -53.26c-35.98,-47.29 -87.62,21.32 -113.78,47.48l-763.75 763.75c-47.61,47.61 -91.89,91.87 -139.5,139.48 -19.9,19.89 -133.77,126.17 -133.77,145.2zm197.78 -415.05c-1.53,-19.5 -8.03,-48.56 -9.96,-65.46 -1.31,-11.47 0.69,-24.51 -0.62,-35.96 -1.61,-14 -4.26,-11.8 -4.26,-32.32l146.35 0 -131.51 133.75zm200.11 -206.93l-214.95 0 15.48 -144.59c4.12,-23.31 8.22,-41.5 12.99,-64.76 4.28,-20.9 12.04,-42.59 17.27,-65.05l260.68 18.29c0,191.6 16.41,155.11 -42.3,213.81 -9.92,9.91 -35.35,42.3 -49.17,42.3zm165.76 -158.95l-1.12 -97.16 77.75 0c12.35,0 12.61,-2.18 22.86,-4.57l-99.49 101.73zm-453.88 145.23l0 13.72 -310.99 0c0,-120.96 50.66,-263.82 100.61,-338.43l187.15 41.52c95.32,19.13 61.02,-14.17 36.94,141.41 -6.96,45.01 -13.72,89.61 -13.72,141.78zm365.87 -676.86l13.72 0 0 361.3 -175.61 -11.89c-13.02,-2.32 -47.26,-6.17 -57.63,-6.4 6.65,-28.56 17.22,-47.43 29.04,-71.57l48.71 -93.07c5.3,-10.31 7.61,-13.82 13.71,-22.88 16.17,-24.04 102.45,-155.48 128.07,-155.48zm86.89 361.3l0 -361.3 27.44 0c3.41,12.77 65.69,82.76 79.64,103.3 9.67,14.22 16.86,25.44 25.55,38.48 14.22,21.32 86.89,146 86.89,164.64 0,10.9 -22.77,31.97 -31.06,37.54 -19.62,13.18 -126.99,10.54 -156.49,12.72 -17.78,1.31 -11.5,4.16 -31.96,4.62zm141.77 -343c10.92,5.24 69.91,16.35 134.17,48.76 22.56,11.38 38.63,18.8 59.76,31.71l57.61 38.44 -113.21 115.45c-39.79,-73.45 -50.85,-104.71 -99.85,-176.8 -20.03,-29.47 -22.1,-26.39 -38.48,-57.56zm-525.93 315.56c-12.31,-5.91 -39.38,-7.61 -57.64,-10.96 -35.67,-6.56 -150.9,-29.68 -171.03,-39.34 4.51,-16.89 22.79,-34.28 35.45,-46.87 14.87,-14.79 26.33,-26.33 41.16,-41.16 30.63,-30.63 56.93,-51.27 93.52,-75.69 67.03,-44.75 142.87,-80.69 232.33,-101.53 -33.2,49.57 -59.45,75.63 -97.62,144.77 -8.04,14.56 -12.36,25.06 -20.4,39.06l-39.01 84.47c-7.47,15.86 -12.7,29.8 -16.76,47.26zm-457.34 356.72c0,155.55 7.6,210.54 64.63,356.12 28.07,71.67 71.44,131.02 116.36,190.06 35.74,46.98 80.86,-14.55 112.85,-46.54l903.25 -903.22c19.89,-19.9 133.76,-126.18 133.76,-145.21 0,-17.48 0.53,-26.41 -12.72,-37.58 -44.31,-37.36 -139.66,-95.58 -190.32,-116.1 -215.27,-87.19 -458.3,-95.11 -667.44,10.36 -43.19,21.78 -137.29,75.16 -175.76,112.36 -11.63,11.24 -12.37,11.26 -24.78,20.95 -20.83,16.27 -41.71,40.72 -57.73,61.18 -21.54,27.51 -49.2,55.15 -73.98,95.23 -68.36,110.56 -128.11,259.43 -128.11,402.4z"/>
 </g>
</svg>
